<svg version="1.1" id="Laag_1" xmlns="http://www.w3.org/2000/svg" xmlns:xlink="http://www.w3.org/1999/xlink" x="0px" y="0px"
	 viewBox="0 0 130 34" enable-background="new 0 0 130 34" xml:space="preserve">
<g>
	<polygon fill="#FFFFFF" points="0.1,0.1 23.9,0.1 23.9,19.9 12,31.8 0.1,19.9 	"/>
	<polygon fill="#A5BBDB" points="23.9,20 12,31.9 11.9,31.8 11.9,7.8 23.9,19.8 	"/>
	<polygon fill="#344f71" points="0,0 23.9,0 23.9,20 12,8 12,31.9 0,20 	"/>
	<path fill="#344f71" d="M35,16l0.8-3.1h4l0.8,3.1h3.1L39.8,2.1h-3.8L32.1,16H35z M39.1,10.8h-2.8l1.3-6h0L39.1,10.8z"/>
	<path fill="#344f71" d="M48.9,9.9h1.7c1.5,0,1.9,0.7,1.9,2c0,1.9-1.4,2-2,2h-1.6V9.9z M48.9,4.2h1.8c1,0,1.7,0.7,1.7,1.8
		c0,1.3-0.9,1.8-1.5,1.8h-1.9C48.9,7.8,48.9,4.2,48.9,4.2z M51.1,16c1.2,0,4.3-0.2,4.3-3.7c0-1.9-0.5-3.2-2.6-3.5v0
		c1.6-0.3,2.4-1.5,2.4-3.1c0-3-1.8-3.6-4-3.6H46V16L51.1,16L51.1,16z"/>
	<polygon fill="#344f71" points="61.5,16 61.5,5.8 61.5,5.8 65.3,16 69.1,16 69.1,2.1 66.4,2.1 66.4,11.7 66.4,11.7 62.7,2.1
		58.8,2.1 58.8,16 	"/>
	<polygon fill="#344f71" points="73.7,9.8 75.5,8 73.7,6.1 71.8,8 	"/>
	<path fill="#344f71" d="M79.3,16l0.8-3.1h4l0.8,3.1h3.1L84.1,2.1h-3.8L76.5,16H79.3z M83.5,10.8h-2.8l1.3-6h0L83.5,10.8z"/>
	<polygon fill="#344f71" points="93.1,16 93.1,5.3 93.1,5.3 95.7,16 98.4,16 101.1,5.3 101.1,5.3 101.1,16 104,16 104,2.1 99.5,2.1
		97.2,11.5 97.1,11.5 94.9,2.1 90.3,2.1 90.3,16 	"/>
	<path fill="#344f71" d="M110.7,4.2h1.3c0.9,0,1.5,0.5,1.5,1.8c0,0.9-0.3,2-1.5,2h-1.3V4.2z M110.7,10.2h0.7c2.2,0,2.1,1.4,2.1,3.1
		c0,0.9-0.1,1.8,0.3,2.7h2.8c-0.3-0.6-0.3-3.2-0.3-4.1c0-2.5-1.9-2.6-2.5-2.7v0c1.9-0.3,2.6-1.6,2.6-3.4c0-2.4-1.3-3.6-3.2-3.6h-5.4
		V16h2.9V10.2z"/>
	<path fill="#344f71" d="M124.2,14.1c-1.6,0-1.8-1.5-1.8-5.1c0-3.6,0.2-5.1,1.8-5.1s1.8,1.5,1.8,5.1
		C126.1,12.6,125.9,14.1,124.2,14.1z M124.2,16.2c4.8,0,4.8-3.5,4.8-7.2c0-3.7,0-7.2-4.8-7.2s-4.8,3.5-4.8,7.2
		C119.4,12.7,119.4,16.2,124.2,16.2z"/>
</g>
</svg>
