<svg id="city_art" xmlns="http://www.w3.org/2000/svg" viewBox="0 0 1400 980"><title>art</title><polygon id="background" points="0 0 1400 0 1400 980 0 980 0 0 0 0" style="fill:#e8edee;fill-rule:evenodd"/><g id="sun"><line x1="802.2" y1="29.8" x2="802" y2="46.3" style="fill:none;stroke:#545b5e;stroke-linecap:round;stroke-miterlimit:10;stroke-width:9px"/><line x1="780.7" y1="33.3" x2="786.1" y2="48.9" style="fill:none;stroke:#545b5e;stroke-linecap:round;stroke-miterlimit:10;stroke-width:9px"/><line x1="761.7" y1="44" x2="772.1" y2="56.8" style="fill:none;stroke:#545b5e;stroke-linecap:round;stroke-miterlimit:10;stroke-width:9px"/><line x1="747.5" y1="60.6" x2="761.6" y2="69" style="fill:none;stroke:#545b5e;stroke-linecap:round;stroke-miterlimit:10;stroke-width:9px"/><line x1="739.8" y1="81" x2="756" y2="84" style="fill:none;stroke:#545b5e;stroke-linecap:round;stroke-miterlimit:10;stroke-width:9px"/><line x1="739.5" y1="102.8" x2="755.8" y2="100.1" style="fill:none;stroke:#545b5e;stroke-linecap:round;stroke-miterlimit:10;stroke-width:9px"/><line x1="746.8" y1="123.3" x2="761.1" y2="115.3" style="fill:none;stroke:#545b5e;stroke-linecap:round;stroke-miterlimit:10;stroke-width:9px"/><line x1="760.6" y1="140.2" x2="771.3" y2="127.7" style="fill:none;stroke:#545b5e;stroke-linecap:round;stroke-miterlimit:10;stroke-width:9px"/><line x1="779.3" y1="151.3" x2="785.2" y2="135.9" style="fill:none;stroke:#545b5e;stroke-linecap:round;stroke-miterlimit:10;stroke-width:9px"/><line x1="800.8" y1="155.3" x2="801" y2="138.9" style="fill:none;stroke:#545b5e;stroke-linecap:round;stroke-miterlimit:10;stroke-width:9px"/><line x1="822.3" y1="151.8" x2="816.8" y2="136.2" style="fill:none;stroke:#545b5e;stroke-linecap:round;stroke-miterlimit:10;stroke-width:9px"/><line x1="841.3" y1="141.1" x2="830.8" y2="128.4" style="fill:none;stroke:#545b5e;stroke-linecap:round;stroke-miterlimit:10;stroke-width:9px"/><line x1="855.5" y1="124.6" x2="841.3" y2="116.2" style="fill:none;stroke:#545b5e;stroke-linecap:round;stroke-miterlimit:10;stroke-width:9px"/><line x1="863.2" y1="104.2" x2="847" y2="101.1" style="fill:none;stroke:#545b5e;stroke-linecap:round;stroke-miterlimit:10;stroke-width:9px"/><line x1="863.4" y1="82.4" x2="847.1" y2="85" style="fill:none;stroke:#545b5e;stroke-linecap:round;stroke-miterlimit:10;stroke-width:9px"/><line x1="856.2" y1="61.8" x2="841.8" y2="69.9" style="fill:none;stroke:#545b5e;stroke-linecap:round;stroke-miterlimit:10;stroke-width:9px"/><line x1="842.4" y1="44.9" x2="831.6" y2="57.4" style="fill:none;stroke:#545b5e;stroke-linecap:round;stroke-miterlimit:10;stroke-width:9px"/><line x1="823.6" y1="33.8" x2="817.8" y2="49.2" style="fill:none;stroke:#545b5e;stroke-linecap:round;stroke-miterlimit:10;stroke-width:9px"/><circle cx="801.5" cy="92.6" r="25.2" style="fill:#c9c097;stroke:#545b5e;stroke-linecap:round;stroke-miterlimit:10;stroke-width:9px"/></g><g id="sky_back"><g id="smog2"><line x1="133.3" y1="382.3" x2="210.8" y2="382.3" style="fill:none;stroke:#545b5e;stroke-linecap:round;stroke-miterlimit:10;stroke-width:9px"/><line x1="232.8" y1="382.3" x2="255" y2="382.3" style="fill:none;stroke:#545b5e;stroke-linecap:round;stroke-miterlimit:10;stroke-width:9px"/></g><g id="smog3"><line x1="247.3" y1="315" x2="275.3" y2="315" style="fill:none;stroke:#545b5e;stroke-linecap:round;stroke-miterlimit:10;stroke-width:9px"/><line x1="293.3" y1="315" x2="370.5" y2="315" style="fill:none;stroke:#545b5e;stroke-linecap:round;stroke-miterlimit:10;stroke-width:9px"/></g><g id="smog1"><line x1="927" y1="201.7" x2="950.4" y2="201.7" style="fill:none;stroke:#545b5e;stroke-linecap:round;stroke-miterlimit:10;stroke-width:9px"/><line x1="967.5" y1="201.7" x2="1080" y2="201.7" style="fill:none;stroke:#545b5e;stroke-linecap:round;stroke-miterlimit:10;stroke-width:9px"/><line x1="1118.1" y1="201.7" x2="1095.8" y2="201.7" style="fill:none;stroke:#545b5e;stroke-linecap:round;stroke-miterlimit:10;stroke-width:9px"/></g></g><g id="back_buildings"><path d="M1045.2,284.9v78.8H941.5V316.1h.8a6.1,6.1,0,0,0,6.1-6.1V292.9a6.1,6.1,0,0,0-6.1-6.1H835.4v-9.7h5.7v-16H795.8v16h6v9.7H788.5a6.1,6.1,0,0,0-6.1,6.1V310a6.1,6.1,0,0,0,6.1,6.1h.8V618.4a6.1,6.1,0,0,0,6.1,6.1h330l.4-384.8Zm-235.9-7.7h18.5v9.7H809.3Z" style="fill:#d1e1e2;fill-rule:evenodd"/><path d="M583,287.8H491.2a5.2,5.2,0,0,0-5.2,5.2V310a5.2,5.2,0,0,0,5.2,5.2h.8V618.4a6.1,6.1,0,0,0,6.1,6.1H686.6l.5-308.3V127.7L583,186.1Z" style="fill:#d1e1e2;fill-rule:evenodd"/><path d="M442.8,392.3H333.6V322.2l-84.3-40.3.4,342.5H437.2c2.7,0,4.9-1.9,4.9-4.2v-209h.7c2.3,0,4.2-1.6,4.2-3.6V395.9C446.9,393.9,445.1,392.3,442.8,392.3Z" style="fill:#d1e1e2;fill-rule:evenodd"/></g><g id="front_buildings"><g id="building2"><rect x="389.3" y="534.2" width="228" height="85.97" style="fill:#e8edee"/><rect x="411.1" y="290.9" width="184.5" height="243.24" style="fill:#e1e2de"/><rect x="411.1" y="333.1" width="184.5" height="16.73" style="fill:#e8edee;stroke:#545b5e;stroke-linecap:round;stroke-linejoin:round;stroke-width:2px"/><rect x="411.1" y="404.2" width="184.5" height="16.73" style="fill:#e8edee;stroke:#545b5e;stroke-linecap:round;stroke-linejoin:round;stroke-width:2px"/><rect x="411.1" y="475.3" width="184.5" height="16.73" style="fill:#e8edee;stroke:#545b5e;stroke-linecap:round;stroke-linejoin:round;stroke-width:2px"/><rect x="444.4" y="258.9" width="117.8" height="32.08" style="fill:#e8edee;stroke:#545b5e;stroke-linecap:round;stroke-linejoin:round;stroke-width:9px"/><rect x="462.6" y="228.2" width="81.4" height="30.62" style="fill:#e8edee;stroke:#545b5e;stroke-linecap:round;stroke-linejoin:round;stroke-width:9px"/><rect x="411.1" y="555" width="35.1" height="65.15" style="fill:#a3a096;stroke:#545b5e;stroke-linecap:round;stroke-linejoin:round;stroke-width:2px"/><rect x="560.4" y="555" width="35.1" height="65.15" style="fill:#a3a096;stroke:#545b5e;stroke-linecap:round;stroke-linejoin:round;stroke-width:2px"/><rect x="485.7" y="555" width="35.1" height="65.15" style="fill:#a3a096;stroke:#545b5e;stroke-linecap:round;stroke-linejoin:round;stroke-width:2px"/><line x1="503.3" y1="227.6" x2="503.3" y2="189.4" style="fill:none;stroke:#545b5e;stroke-linecap:round;stroke-linejoin:round;stroke-width:9px"/><line x1="444.9" y1="290.9" x2="444.9" y2="532.2" style="fill:none;stroke:#545b5e;stroke-linecap:round;stroke-linejoin:round;stroke-width:2px"/><line x1="561.7" y1="290.9" x2="561.7" y2="532.2" style="fill:none;stroke:#545b5e;stroke-linecap:round;stroke-linejoin:round;stroke-width:2px"/><line x1="483.8" y1="290.9" x2="483.8" y2="532.2" style="fill:none;stroke:#545b5e;stroke-linecap:round;stroke-linejoin:round;stroke-width:2px"/><line x1="522.8" y1="290.9" x2="522.8" y2="532.2" style="fill:none;stroke:#545b5e;stroke-linecap:round;stroke-linejoin:round;stroke-width:2px"/><rect x="389.3" y="534.2" width="228" height="85.97" style="fill:none;stroke:#545b5e;stroke-linecap:round;stroke-linejoin:round;stroke-width:9px"/><rect x="411.1" y="290.9" width="184.5" height="243.24" style="fill:none;stroke:#545b5e;stroke-linecap:round;stroke-linejoin:round;stroke-width:9px"/></g><g id="building3"><rect x="303.9" y="469.6" width="127.8" height="149.8" style="fill:#d1e1e2"/><rect x="321.3" y="373.1" width="93.1" height="96.54" style="fill:#d1e1e2;stroke:#545b5e;stroke-linecap:round;stroke-linejoin:round;stroke-width:9px"/><line x1="304.4" y1="494.7" x2="431.1" y2="494.7" style="fill:none;stroke:#545b5e;stroke-linecap:round;stroke-linejoin:round;stroke-width:2px"/><line x1="304.4" y1="518.5" x2="431.1" y2="518.5" style="fill:none;stroke:#545b5e;stroke-linecap:round;stroke-linejoin:round;stroke-width:2px"/><line x1="304.4" y1="542.4" x2="431.1" y2="542.4" style="fill:none;stroke:#545b5e;stroke-linecap:round;stroke-linejoin:round;stroke-width:2px"/><line x1="304.4" y1="566.2" x2="431.1" y2="566.2" style="fill:none;stroke:#545b5e;stroke-linecap:round;stroke-linejoin:round;stroke-width:2px"/><line x1="304.4" y1="590" x2="341.3" y2="590" style="fill:none;stroke:#545b5e;stroke-linecap:round;stroke-linejoin:round;stroke-width:2px"/><line x1="431.6" y1="590" x2="394.9" y2="590" style="fill:none;stroke:#545b5e;stroke-linecap:round;stroke-linejoin:round;stroke-width:2px"/><line x1="415.5" y1="470.8" x2="415.5" y2="619.7" style="fill:none;stroke:#545b5e;stroke-linecap:round;stroke-linejoin:round;stroke-width:2px"/><line x1="391.6" y1="470.8" x2="391.6" y2="565.4" style="fill:none;stroke:#545b5e;stroke-linecap:round;stroke-linejoin:round;stroke-width:2px"/><line x1="367.8" y1="470.8" x2="367.8" y2="565.4" style="fill:none;stroke:#545b5e;stroke-linecap:round;stroke-linejoin:round;stroke-width:2px"/><line x1="344" y1="470.8" x2="344" y2="565.4" style="fill:none;stroke:#545b5e;stroke-linecap:round;stroke-linejoin:round;stroke-width:2px"/><line x1="320.1" y1="470.8" x2="320.1" y2="569.2" style="fill:none;stroke:#545b5e;stroke-linecap:round;stroke-linejoin:round;stroke-width:2px"/><line x1="320.1" y1="619.7" x2="320.1" y2="569.2" style="fill:none;stroke:#545b5e;stroke-linecap:round;stroke-linejoin:round;stroke-width:2px"/><line x1="321.3" y1="397.3" x2="413.9" y2="397.3" style="fill:none;stroke:#545b5e;stroke-linecap:round;stroke-linejoin:round;stroke-width:2px"/><line x1="321.3" y1="421.1" x2="413.9" y2="421.1" style="fill:none;stroke:#545b5e;stroke-linecap:round;stroke-linejoin:round;stroke-width:2px"/><line x1="321.3" y1="445" x2="413.9" y2="445" style="fill:none;stroke:#545b5e;stroke-linecap:round;stroke-linejoin:round;stroke-width:2px"/><line x1="391.6" y1="373.4" x2="391.6" y2="473.7" style="fill:none;stroke:#545b5e;stroke-linecap:round;stroke-linejoin:round;stroke-width:2px"/><line x1="367.8" y1="373.4" x2="367.8" y2="473.7" style="fill:none;stroke:#545b5e;stroke-linecap:round;stroke-linejoin:round;stroke-width:2px"/><line x1="344" y1="373.4" x2="344" y2="473.7" style="fill:none;stroke:#545b5e;stroke-linecap:round;stroke-linejoin:round;stroke-width:2px"/><polyline points="394.3 566.5 394.3 619.4 341.8 619.4 341.8 566.5" style="fill:#d3d3ce;stroke:#545b5e;stroke-linecap:round;stroke-linejoin:round;stroke-width:2px"/><rect x="330.5" y="556.6" width="75" height="9.66" style="fill:#c3a192;stroke:#545b5e;stroke-linecap:round;stroke-linejoin:round;stroke-width:2px"/><rect x="352.5" y="575.5" width="30.8" height="43.93" style="fill:#e6e6e7;stroke:#545b5e;stroke-linecap:round;stroke-linejoin:round;stroke-width:2px"/><rect x="303.9" y="469.6" width="127.8" height="149.8" style="fill:none;stroke:#545b5e;stroke-linecap:round;stroke-linejoin:round;stroke-width:9px"/></g><g id="building1"><rect x="562.2" y="288.7" width="120.7" height="41.22" style="fill:#d3d3ce;stroke:#545b5e;stroke-linecap:round;stroke-linejoin:round;stroke-width:9px"/><rect x="522.7" y="329.9" width="199.8" height="290.93" style="fill:#e8edee;stroke:#545b5e;stroke-linecap:round;stroke-linejoin:round;stroke-width:9px"/><polygon points="647.5 269 596.6 269 586.5 288.7 658.7 288.7 647.5 269" style="fill:#e1e2de;stroke:#545b5e;stroke-linecap:round;stroke-linejoin:round;stroke-width:9px"/><polygon points="647.5 269 597.6 269 597.6 236.1 622.6 208.8 647.5 236.1 647.5 269" style="fill:#bcbcba;stroke:#545b5e;stroke-linecap:round;stroke-linejoin:round;stroke-width:9px"/><polyline points="622.6 288 622.6 189.4 622.6 189.4" style="fill:none;stroke:#545b5e;stroke-linecap:round;stroke-linejoin:round;stroke-width:9px"/><rect x="545.9" y="352.1" width="17.2" height="25.17" style="fill:#d2dbce;stroke:#545b5e;stroke-miterlimit:10;stroke-width:2px"/><rect x="579.9" y="352.1" width="17.2" height="25.17" style="fill:#d2dbce;stroke:#545b5e;stroke-miterlimit:10;stroke-width:2px"/><rect x="614" y="352.1" width="17.2" height="25.17" style="fill:#d2dbce;stroke:#545b5e;stroke-miterlimit:10;stroke-width:2px"/><rect x="648" y="352.1" width="17.2" height="25.17" style="fill:#d2dbce;stroke:#545b5e;stroke-miterlimit:10;stroke-width:2px"/><rect x="682.1" y="352.1" width="17.2" height="25.17" style="fill:#d2dbce;stroke:#545b5e;stroke-miterlimit:10;stroke-width:2px"/><rect x="545.9" y="394.8" width="17.2" height="25.17" style="fill:#d2dbce;stroke:#545b5e;stroke-miterlimit:10;stroke-width:2px"/><rect x="579.9" y="394.8" width="17.2" height="25.17" style="fill:#d2dbce;stroke:#545b5e;stroke-miterlimit:10;stroke-width:2px"/><rect x="614" y="394.8" width="17.2" height="25.17" style="fill:#d2dbce;stroke:#545b5e;stroke-miterlimit:10;stroke-width:2px"/><rect x="648" y="394.8" width="17.2" height="25.17" style="fill:#d2dbce;stroke:#545b5e;stroke-miterlimit:10;stroke-width:2px"/><rect x="682.1" y="394.8" width="17.2" height="25.17" style="fill:#d2dbce;stroke:#545b5e;stroke-miterlimit:10;stroke-width:2px"/><rect x="545.9" y="480.2" width="17.2" height="25.17" style="fill:#d2dbce;stroke:#545b5e;stroke-miterlimit:10;stroke-width:2px"/><rect x="579.9" y="480.2" width="17.2" height="25.17" style="fill:#d2dbce;stroke:#545b5e;stroke-miterlimit:10;stroke-width:2px"/><rect x="614" y="480.2" width="17.2" height="25.17" style="fill:#d2dbce;stroke:#545b5e;stroke-miterlimit:10;stroke-width:2px"/><rect x="648" y="480.2" width="17.2" height="25.17" style="fill:#d2dbce;stroke:#545b5e;stroke-miterlimit:10;stroke-width:2px"/><rect x="682.1" y="480.2" width="17.2" height="25.17" style="fill:#d2dbce;stroke:#545b5e;stroke-miterlimit:10;stroke-width:2px"/><rect x="545.9" y="565.6" width="17.2" height="25.17" style="fill:#d2dbce;stroke:#545b5e;stroke-miterlimit:10;stroke-width:2px"/><rect x="579.9" y="565.6" width="17.2" height="25.17" style="fill:#d2dbce;stroke:#545b5e;stroke-miterlimit:10;stroke-width:2px"/><rect x="614" y="565.6" width="17.2" height="25.17" style="fill:#d2dbce;stroke:#545b5e;stroke-miterlimit:10;stroke-width:2px"/><rect x="648" y="565.6" width="17.2" height="25.17" style="fill:#d2dbce;stroke:#545b5e;stroke-miterlimit:10;stroke-width:2px"/><rect x="682.1" y="565.6" width="17.2" height="25.17" style="fill:#d2dbce;stroke:#545b5e;stroke-miterlimit:10;stroke-width:2px"/><line x1="545.9" y1="437.5" x2="699.3" y2="437.5" style="fill:none;stroke:#545b5e;stroke-linecap:round;stroke-linejoin:round;stroke-width:2px"/><line x1="545.9" y1="462.7" x2="699.3" y2="462.7" style="fill:none;stroke:#545b5e;stroke-linecap:round;stroke-linejoin:round;stroke-width:2px"/><line x1="545.9" y1="450.1" x2="699.3" y2="450.1" style="fill:none;stroke:#545b5e;stroke-linecap:round;stroke-linejoin:round;stroke-width:2px"/><line x1="581.4" y1="303" x2="663.8" y2="303" style="fill:none;stroke:#545b5e;stroke-linejoin:round;stroke-width:2px"/><line x1="581.4" y1="315.6" x2="663.8" y2="315.6" style="fill:none;stroke:#545b5e;stroke-linejoin:round;stroke-width:2px"/><line x1="545.9" y1="522.9" x2="699.3" y2="522.9" style="fill:none;stroke:#545b5e;stroke-linecap:round;stroke-linejoin:round;stroke-width:2px"/><line x1="545.9" y1="548.1" x2="699.3" y2="548.1" style="fill:none;stroke:#545b5e;stroke-linecap:round;stroke-linejoin:round;stroke-width:2px"/><line x1="545.9" y1="535.5" x2="699.3" y2="535.5" style="fill:none;stroke:#545b5e;stroke-linecap:round;stroke-linejoin:round;stroke-width:2px"/></g><g id="town_hall"><g id="back_border"><rect x="771" y="530.8" width="204.1" height="89.89" style="fill:#e1e2de"/><polygon points="964.6 517.4 781.4 517.4 771 530.8 975 530.8 964.6 517.4" style="fill:#a88f86;stroke:#545b5e;stroke-linecap:round;stroke-linejoin:round;stroke-width:9px"/><line x1="766" y1="530.8" x2="980" y2="530.8" style="fill:none;stroke:#545b5e;stroke-linecap:round;stroke-linejoin:round;stroke-width:9px"/><rect x="814.5" y="427.4" width="117" height="89.89" style="fill:#e1e2de;stroke:#545b5e;stroke-linecap:round;stroke-linejoin:round;stroke-width:9px"/><polygon points="921 414.1 825 414.1 814.5 427.4 931.5 427.4 921 414.1" style="fill:#a88f86;stroke:#545b5e;stroke-linecap:round;stroke-linejoin:round;stroke-width:9px"/><line x1="809.5" y1="427.4" x2="936.5" y2="427.4" style="fill:none;stroke:#545b5e;stroke-linecap:round;stroke-linejoin:round;stroke-width:9px"/><rect x="841.5" y="402.1" width="63.1" height="11.98" style="fill:#e1e2de;stroke:#545b5e;stroke-linecap:round;stroke-miterlimit:10;stroke-width:9px"/><rect x="831.1" y="331.3" width="83.7" height="70.75" style="fill:#c9c097;stroke:#545b5e;stroke-linecap:round;stroke-miterlimit:10;stroke-width:9px"/><line x1="825.9" y1="402.1" x2="920.1" y2="402.1" style="fill:none;stroke:#545b5e;stroke-linecap:round;stroke-miterlimit:10;stroke-width:9px"/><line x1="825.9" y1="331.3" x2="920.1" y2="331.3" style="fill:none;stroke:#545b5e;stroke-linecap:round;stroke-miterlimit:10;stroke-width:9px"/><polygon points="885.4 281.7 860.6 281.7 845.3 281.7 845.3 331.3 860.6 331.3 885.4 331.3 900.7 331.3 900.7 281.7 885.4 281.7" style="fill:#e1e2de;stroke:#545b5e;stroke-linecap:round;stroke-linejoin:round;stroke-width:2px"/><path d="M900.7,281.7a27.7,27.7,0,0,0-55.5,0Z" style="fill:#cf837a;stroke:#545b5e;stroke-linecap:round;stroke-linejoin:round;stroke-width:2px"/><path d="M873,254a27.7,27.7,0,0,0-27.7,27.7h0v49.6h55.5V281.7A27.7,27.7,0,0,0,873,254Z" style="fill:none;stroke:#545b5e;stroke-linecap:round;stroke-miterlimit:10;stroke-width:9px"/><line x1="873" y1="217.5" x2="873" y2="254" style="fill:none;stroke:#545b5e;stroke-linecap:round;stroke-miterlimit:10;stroke-width:9px"/></g><rect x="841.5" y="402.1" width="63.1" height="11.98" style="fill:none;stroke:#545b5e;stroke-linecap:round;stroke-linejoin:round;stroke-width:2px"/><rect x="831.1" y="331.3" width="83.7" height="70.75" style="fill:none;stroke:#545b5e;stroke-linecap:round;stroke-linejoin:round;stroke-width:2px"/><rect x="814.5" y="427.4" width="117" height="89.89" style="fill:none;stroke:#545b5e;stroke-linecap:round;stroke-linejoin:round;stroke-width:2px"/><polygon points="921 414.1 825 414.1 814.5 427.4 931.5 427.4 921 414.1" style="fill:none;stroke:#545b5e;stroke-linecap:round;stroke-linejoin:round;stroke-width:2px"/><line x1="809.5" y1="427.4" x2="936.5" y2="427.4" style="fill:none;stroke:#545b5e;stroke-linecap:round;stroke-linejoin:round;stroke-width:2px"/><rect x="771" y="530.8" width="204.1" height="89.89" style="fill:none;stroke:#545b5e;stroke-linecap:round;stroke-linejoin:round;stroke-width:2px"/><polygon points="964.6 517.4 781.4 517.4 771 530.8 975 530.8 964.6 517.4" style="fill:none;stroke:#545b5e;stroke-linecap:round;stroke-linejoin:round;stroke-width:2px"/><line x1="766" y1="530.8" x2="980" y2="530.8" style="fill:none;stroke:#545b5e;stroke-linecap:round;stroke-linejoin:round;stroke-width:2px"/><polygon points="964.6 517.4 781.4 517.4 771 530.8 975 530.8 964.6 517.4" style="fill:none;stroke:#545b5e;stroke-linecap:round;stroke-linejoin:round;stroke-width:2px"/><line x1="766" y1="530.8" x2="980" y2="530.8" style="fill:none;stroke:#545b5e;stroke-linecap:round;stroke-linejoin:round;stroke-width:2px"/><line x1="825.9" y1="402.1" x2="920.1" y2="402.1" style="fill:none;stroke:#545b5e;stroke-linecap:round;stroke-linejoin:round;stroke-width:2px"/><line x1="825.9" y1="331.3" x2="920.1" y2="331.3" style="fill:none;stroke:#545b5e;stroke-linecap:round;stroke-linejoin:round;stroke-width:2px"/><g id="clock"><circle id="clock_round" cx="873" cy="366.7" r="23.4" style="fill:#e1e2de;stroke:#545b5e;stroke-linecap:round;stroke-linejoin:round;stroke-width:2px"/><line id="minute" x1="873" y1="367.5" x2="873" y2="349.4" style="fill:none;stroke:#545b5e;stroke-linecap:round;stroke-linejoin:round;stroke-width:2px"/><line id="hour" x1="886.4" y1="367.5" x2="873" y2="367.5" style="fill:none;stroke:#545b5e;stroke-linecap:round;stroke-linejoin:round;stroke-width:2px"/></g><polygon points="885.4 281.7 860.6 281.7 845.3 281.7 845.3 331.3 860.6 331.3 885.4 331.3 900.7 331.3 900.7 281.7 885.4 281.7" style="fill:none;stroke:#545b5e;stroke-linecap:round;stroke-linejoin:round;stroke-width:2px"/><polygon points="854 281.7 848.6 281.7 845.3 281.7 845.3 331.3 848.6 331.3 854 331.3 857.3 331.3 857.3 281.7 854 281.7" style="fill:none;stroke:#545b5e;stroke-linecap:round;stroke-linejoin:round;stroke-width:2px"/><polygon points="897.4 281.7 892 281.7 888.7 281.7 888.7 331.3 892 331.3 897.4 331.3 900.7 331.3 900.7 281.7 897.4 281.7" style="fill:none;stroke:#545b5e;stroke-linecap:round;stroke-linejoin:round;stroke-width:2px"/><polygon points="875.7 281.7 870.3 281.7 867 281.7 867 331.3 870.3 331.3 875.7 331.3 879 331.3 879 281.7 875.7 281.7" style="fill:none;stroke:#545b5e;stroke-linecap:round;stroke-linejoin:round;stroke-width:2px"/><path d="M900.7,281.7a27.7,27.7,0,0,0-55.5,0Z" style="fill:none;stroke:#545b5e;stroke-linecap:round;stroke-linejoin:round;stroke-width:2px"/><line x1="831" y1="443.5" x2="831" y2="461.2" style="fill:none;stroke:#545b5e;stroke-miterlimit:10;stroke-width:9px"/><line x1="845" y1="443.5" x2="845" y2="461.2" style="fill:none;stroke:#545b5e;stroke-miterlimit:10;stroke-width:9px"/><line x1="859" y1="443.5" x2="859" y2="461.2" style="fill:none;stroke:#545b5e;stroke-miterlimit:10;stroke-width:9px"/><line x1="873" y1="443.5" x2="873" y2="461.2" style="fill:none;stroke:#545b5e;stroke-miterlimit:10;stroke-width:9px"/><line x1="887" y1="443.5" x2="887" y2="461.2" style="fill:none;stroke:#545b5e;stroke-miterlimit:10;stroke-width:9px"/><line x1="901" y1="443.5" x2="901" y2="461.2" style="fill:none;stroke:#545b5e;stroke-miterlimit:10;stroke-width:9px"/><line x1="915" y1="443.5" x2="915" y2="461.2" style="fill:none;stroke:#545b5e;stroke-miterlimit:10;stroke-width:9px"/><path d="M810.2,547.4h0A20.7,20.7,0,0,0,789.6,568v52.7h41.3V568A20.7,20.7,0,0,0,810.2,547.4Z" style="fill:#c9c097;stroke:#545b5e;stroke-linecap:round;stroke-linejoin:round;stroke-width:2px"/><path d="M873,547.4h0A20.7,20.7,0,0,0,852.4,568v52.7h41.3V568A20.7,20.7,0,0,0,873,547.4Z" style="fill:#c9c097;stroke:#545b5e;stroke-linecap:round;stroke-linejoin:round;stroke-width:2px"/><path d="M935.8,547.4h0A20.7,20.7,0,0,0,915.1,568v52.7h41.3V568A20.7,20.7,0,0,0,935.8,547.4Z" style="fill:#c9c097;stroke:#545b5e;stroke-linecap:round;stroke-linejoin:round;stroke-width:2px"/><rect x="771" y="530.8" width="204.1" height="89.89" style="fill:none;stroke:#545b5e;stroke-linecap:round;stroke-linejoin:round;stroke-width:9px"/></g><g id="tree3"><path d="M254.4,530.1v62.2a31.1,31.1,0,1,1,0-62.2Z" style="fill:#a6c292"/><path d="M285.5,561.2a31.1,31.1,0,0,1-31.1,31.1V530.1A31.1,31.1,0,0,1,285.5,561.2Z" style="fill:#b3d198"/><line x1="254.4" y1="559" x2="254.4" y2="620.7" style="fill:none;stroke:#807f79;stroke-linecap:round;stroke-linejoin:round;stroke-width:4px"/><polyline points="260.6 570 254.4 576.3 248.1 570" style="fill:none;stroke:#807f79;stroke-linecap:round;stroke-linejoin:round;stroke-width:4px"/><circle cx="254.4" cy="561.2" r="31.1" style="fill:none;stroke:#545b5e;stroke-linecap:round;stroke-linejoin:round;stroke-width:9px"/></g><g id="tree2"><path d="M962.3,530.1v62.2a31.1,31.1,0,1,1,0-62.2Z" style="fill:#a6c292"/><path d="M993.4,561.2a31.1,31.1,0,0,1-31.1,31.1V530.1A31.1,31.1,0,0,1,993.4,561.2Z" style="fill:#b3d198"/><line x1="962.3" y1="559" x2="962.3" y2="620.7" style="fill:none;stroke:#807f79;stroke-linecap:round;stroke-linejoin:round;stroke-width:4px"/><polyline points="968.5 570 962.3 576.3 956 570" style="fill:none;stroke:#807f79;stroke-linecap:round;stroke-linejoin:round;stroke-width:4px"/><circle cx="962.3" cy="561.2" r="31.1" style="fill:none;stroke:#545b5e;stroke-linecap:round;stroke-linejoin:round;stroke-width:9px"/></g><g id="tree1"><path d="M1046.9,530.1v62.2a31.1,31.1,0,1,1,0-62.2Z" style="fill:#a6c292"/><path d="M1078.1,561.2a31.1,31.1,0,0,1-31.1,31.1V530.1A31.1,31.1,0,0,1,1078.1,561.2Z" style="fill:#b3d198"/><line x1="1046.9" y1="559" x2="1046.9" y2="620.7" style="fill:none;stroke:#807f79;stroke-linecap:round;stroke-linejoin:round;stroke-width:4px"/><polyline points="1053.2 570 1046.9 576.3 1040.7 570" style="fill:none;stroke:#807f79;stroke-linecap:round;stroke-linejoin:round;stroke-width:4px"/><circle cx="1046.9" cy="561.2" r="31.1" style="fill:none;stroke:#545b5e;stroke-linecap:round;stroke-linejoin:round;stroke-width:9px"/></g></g><g id="clone_tree" style="opacity:0.01"><path d="M31.1,0V62.2A31.1,31.1,0,1,1,31.1,0Z" style="fill:#a6c292"/><path d="M62.2,31.1A31.1,31.1,0,0,1,31.1,62.2V0A31.1,31.1,0,0,1,62.2,31.1Z" style="fill:#b3d198"/><line x1="31.1" y1="28.9" x2="31.1" y2="90.6" style="fill:none;stroke:#807f79;stroke-linecap:round;stroke-linejoin:round;stroke-width:4px"/><polyline points="37.4 39.9 31.1 46.1 24.8 39.9" style="fill:none;stroke:#807f79;stroke-linecap:round;stroke-linejoin:round;stroke-width:4px"/><circle cx="31.1" cy="31.1" r="31.1" style="fill:none;stroke:#545b5e;stroke-linecap:round;stroke-miterlimit:10;stroke-width:9px"/></g><rect id="folding_screen" x="117.1" y="626.7" width="1162.3" height="352.54" style="fill:#e8edee"/><line id="horizont" x1="117.1" y1="620.7" x2="1280" y2="620.7" style="fill:none;stroke:#545b5e;stroke-linecap:round;stroke-linejoin:round;stroke-width:9px"/><g id="railroad_group"><g id="train1"><path d="M958.3,653.3h224.3c6.5,0,10.3-1.8,12.1-4.7,4.4-7.3-5-21.2-18-27.9s-10.6-25.1-38.1-25.1H958.3v57.7Z" style="fill:#e1e2de;fill-rule:evenodd"/><polygon points="706.1 595.6 944.4 595.6 944.4 653.3 706.1 653.3 706.1 595.6 706.1 595.6" style="fill:#e1e2de;fill-rule:evenodd"/><polygon points="1101.1 604.5 1086.4 604.5 1086.4 613.3 1101.1 613.3 1101.1 604.5 1101.1 604.5" style="fill:#70727f;fill-rule:evenodd"/><polygon points="1073 604.5 1058.4 604.5 1058.4 613.3 1073 613.3 1073 604.5 1073 604.5" style="fill:#70727f;fill-rule:evenodd"/><polygon points="1045 604.5 1030.3 604.5 1030.3 613.3 1045 613.3 1045 604.5 1045 604.5" style="fill:#70727f;fill-rule:evenodd"/><polygon points="1017 604.5 1002.3 604.5 1002.3 613.3 1017 613.3 1017 604.5 1017 604.5" style="fill:#70727f;fill-rule:evenodd"/><polygon points="988.9 604.5 974.3 604.5 974.3 613.3 988.9 613.3 988.9 604.5 988.9 604.5" style="fill:#70727f;fill-rule:evenodd"/><path d="M958.3,625.4a3.5,3.5,0,0,0,0,7.1h178.1a93,93,0,0,1,18.5,1.9,96.7,96.7,0,0,1,13.9,3.9,80.2,80.2,0,0,1,12.3,6c4.3,2.5,8.3,5.1,11.7,7.4a3.5,3.5,0,0,0,4-5.8c-3.6-2.5-7.8-5.2-12.1-7.7a87.2,87.2,0,0,0-13.4-6.5,103,103,0,0,0-14.9-4.2,98.8,98.8,0,0,0-19.9-2Z" style="fill:#cf837a"/><path d="M944.4,632.3a3.5,3.5,0,0,0,0-7.1H706.1a3.5,3.5,0,0,0,0,7.1Z" style="fill:#cf837a"/><polygon points="451.4 595.6 689.6 595.6 689.6 653.3 451.4 653.3 451.4 595.6 451.4 595.6" style="fill:#e1e2de;fill-rule:evenodd"/><path d="M689.6,632.3a3.5,3.5,0,1,0,0-7.1H451.4a3.5,3.5,0,0,0,0,7.1Z" style="fill:#cf837a"/><polygon points="197.7 595.6 435.9 595.6 435.9 653.3 197.7 653.3 197.7 595.6 197.7 595.6" style="fill:#e1e2de;fill-rule:evenodd"/><path d="M435.9,632.3a3.5,3.5,0,0,0,0-7.1H197.7a3.5,3.5,0,0,0,0,7.1Z" style="fill:#cf837a"/><path d="M1143,595.7a6.3,6.3,0,0,0-.6,2.7v12.6a6.3,6.3,0,0,0,6.3,6.3H1166a6.3,6.3,0,0,0,4.4-1.8c-6.4-7.6-9.4-18.3-27.4-19.8Z" style="fill:#70727f;fill-rule:evenodd"/><path d="M1155.4,653.8a6.4,6.4,0,1,0,6.4,6.5,6.5,6.5,0,0,0-6.4-6.5Z" style="fill:#545b5e;fill-rule:evenodd"/><path d="M1133.2,653.8a6.4,6.4,0,1,0,6.4,6.5,6.5,6.5,0,0,0-6.4-6.5Z" style="fill:#545b5e;fill-rule:evenodd"/><path d="M1006.4,653.8a6.4,6.4,0,1,0,6.4,6.5,6.5,6.5,0,0,0-6.4-6.5Z" style="fill:#545b5e;fill-rule:evenodd"/><path d="M984.1,653.8a6.4,6.4,0,1,0,6.4,6.5,6.5,6.5,0,0,0-6.4-6.5Z" style="fill:#545b5e;fill-rule:evenodd"/><path d="M917.8,653.8a6.4,6.4,0,1,0,6.4,6.5,6.4,6.4,0,0,0-6.4-6.5Z" style="fill:#545b5e;fill-rule:evenodd"/><path d="M895.5,653.8a6.4,6.4,0,1,0,6.4,6.5,6.5,6.5,0,0,0-6.4-6.5Z" style="fill:#545b5e;fill-rule:evenodd"/><path d="M746.2,653.8a6.4,6.4,0,1,0,6.4,6.5,6.5,6.5,0,0,0-6.4-6.5Z" style="fill:#545b5e;fill-rule:evenodd"/><path d="M724,653.8a6.4,6.4,0,1,0,6.4,6.5,6.5,6.5,0,0,0-6.4-6.5Z" style="fill:#545b5e;fill-rule:evenodd"/><path d="M668.5,653.8a6.4,6.4,0,1,0,6.4,6.5,6.5,6.5,0,0,0-6.4-6.5Z" style="fill:#545b5e;fill-rule:evenodd"/><path d="M646.2,653.8a6.4,6.4,0,1,0,6.4,6.5,6.4,6.4,0,0,0-6.4-6.5Z" style="fill:#545b5e;fill-rule:evenodd"/><path d="M494.9,653.8a6.4,6.4,0,1,0,6.4,6.5,6.4,6.4,0,0,0-6.4-6.5Z" style="fill:#545b5e;fill-rule:evenodd"/><path d="M472.7,653.8a6.4,6.4,0,1,0,6.5,6.5,6.4,6.4,0,0,0-6.5-6.5Z" style="fill:#545b5e;fill-rule:evenodd"/><path d="M414.4,653.8a6.4,6.4,0,1,0,6.4,6.5,6.4,6.4,0,0,0-6.4-6.5Z" style="fill:#545b5e;fill-rule:evenodd"/><path d="M392.1,653.8a6.4,6.4,0,1,0,6.4,6.5,6.5,6.5,0,0,0-6.4-6.5Z" style="fill:#545b5e;fill-rule:evenodd"/><path d="M242.6,653.8a6.4,6.4,0,1,0,6.5,6.5,6.5,6.5,0,0,0-6.5-6.5Z" style="fill:#545b5e;fill-rule:evenodd"/><path d="M220.3,653.8a6.4,6.4,0,1,0,6.4,6.5,6.5,6.5,0,0,0-6.4-6.5Z" style="fill:#545b5e;fill-rule:evenodd"/><path d="M201.2,599.1v50.7H432.4V599.1ZM435.9,592a3.5,3.5,0,0,1,3.5,3.5v57.7a3.5,3.5,0,0,1-3.5,3.5H197.7a3.5,3.5,0,0,1-3.5-3.5V595.6a3.5,3.5,0,0,1,3.5-3.5Z" style="fill:#545b5e"/><path d="M454.9,599.1v50.7H686.1V599.1ZM689.6,592a3.5,3.5,0,0,1,3.5,3.5v57.7a3.5,3.5,0,0,1-3.5,3.5H451.4a3.5,3.5,0,0,1-3.5-3.5V595.6a3.5,3.5,0,0,1,3.5-3.5Z" style="fill:#545b5e"/><path d="M709.7,599.1v50.7H940.8V599.1ZM944.4,592a3.5,3.5,0,0,1,3.5,3.5v57.7a3.5,3.5,0,0,1-3.5,3.5H706.1a3.5,3.5,0,0,1-3.5-3.5V595.6a3.5,3.5,0,0,1,3.5-3.5Z" style="fill:#545b5e"/><path d="M958.3,656.9a3.5,3.5,0,0,1-3.5-3.5V595.6a3.5,3.5,0,0,1,3.5-3.5h180.3c19.6,0,25.5,8.5,31.1,16.5,2.5,3.6,4.9,7.1,8.7,9l2.5,1.4a44.9,44.9,0,0,1,14.8,14.3c3.6,5.8,4.8,11.9,2.4,16.6l-.3.6a12.1,12.1,0,0,1-6.2,5,24.5,24.5,0,0,1-8.9,1.4Zm224.3-7.1a17.7,17.7,0,0,0,6.3-.9,5.2,5.2,0,0,0,2.7-2v-.2c1.2-2.3.2-5.8-2.1-9.6a37.6,37.6,0,0,0-12.4-11.9l-2.1-1.2c-5.3-2.7-8.3-7-11.3-11.3-4.5-6.5-9.3-13.4-25.2-13.4H961.8v50.7Z" style="fill:#545b5e"/></g><g id="front"><line x1="188.3" y1="688.2" x2="617.3" y2="688.2" style="fill:none;stroke:#545b5e;stroke-linecap:round;stroke-miterlimit:10;stroke-width:9px"/><line x1="668.3" y1="688.2" x2="766" y2="688.2" style="fill:none;stroke:#545b5e;stroke-linecap:round;stroke-miterlimit:10;stroke-width:9px"/><line x1="814.5" y1="688.2" x2="1191.3" y2="688.2" style="fill:none;stroke:#545b5e;stroke-linecap:round;stroke-miterlimit:10;stroke-width:9px"/></g><line id="rail" x1="127.6" y1="669.2" x2="1251.5" y2="669.2" style="fill:none;stroke:#545b5e;stroke-linecap:round;stroke-miterlimit:10;stroke-width:9px"/></g><path id="lake" d="M269.1,700.9h864.6a17.8,17.8,0,0,1,17.7,17.7h0a17.8,17.8,0,0,1-17.7,17.7H1015.8a17.8,17.8,0,0,0-13.4,17.2h0a17.8,17.8,0,0,0,13.4,17.2h190.3a17.8,17.8,0,0,1,17.7,17.7h0a17.8,17.8,0,0,1-17.7,17.7H937a17.8,17.8,0,0,0-13.4,17.2h0A17.8,17.8,0,0,0,937,840.7h119.8a17.8,17.8,0,0,1,17.7,17.7h0a17.8,17.8,0,0,1-17.7,17.7H311.7A17.8,17.8,0,0,1,294,858.4h0a17.8,17.8,0,0,1,17.7-17.7H416.8a17.8,17.8,0,0,0,17.7-17.7h0a17.8,17.8,0,0,0-11.7-16.7H196.7A17.8,17.8,0,0,1,179,788.5h0a17.8,17.8,0,0,1,17.7-17.7H333A17.8,17.8,0,0,0,350.8,753h0a17.8,17.8,0,0,0-11.7-16.7h-70a17.8,17.8,0,0,1-17.7-17.7h0a17.8,17.8,0,0,1,17.7-17.7Z" style="fill:#d1e1e2;fill-rule:evenodd"/><g id="bench"><line x1="257.3" y1="734.1" x2="540.3" y2="734.1" style="fill:none;stroke:#545b5e;stroke-linecap:round;stroke-miterlimit:10;stroke-width:9px"/><line x1="257.3" y1="770.9" x2="540.3" y2="770.9" style="fill:none;stroke:#545b5e;stroke-linecap:round;stroke-miterlimit:10;stroke-width:9px"/><line x1="257.3" y1="807.7" x2="540.3" y2="807.7" style="fill:none;stroke:#545b5e;stroke-linecap:round;stroke-miterlimit:10;stroke-width:9px"/><line x1="272.9" y1="735" x2="272.9" y2="806.7" style="fill:none;stroke:#545b5e;stroke-linecap:round;stroke-miterlimit:10;stroke-width:9px"/><line x1="524.8" y1="735" x2="524.8" y2="806.7" style="fill:none;stroke:#545b5e;stroke-linecap:round;stroke-miterlimit:10;stroke-width:9px"/><rect x="232.3" y="829.7" width="333" height="22.29" style="fill:#807f79;stroke:#545b5e;stroke-linecap:round;stroke-linejoin:round;stroke-width:9px"/><rect x="271.5" y="852" width="22.3" height="49.44" style="fill:#70727f;stroke:#545b5e;stroke-linecap:round;stroke-linejoin:round;stroke-width:9px"/><rect x="503.9" y="852" width="22.3" height="49.44" style="fill:#70727f;stroke:#545b5e;stroke-linecap:round;stroke-linejoin:round;stroke-width:9px"/><polygon points="181.4 490.3 150.9 490.3 162.8 565.9 181.4 565.9 199.9 565.9 211.9 490.3 181.4 490.3" style="fill:#e6e6e7;stroke:#545b5e;stroke-linecap:round;stroke-linejoin:round;stroke-width:9px"/><polygon points="181.4 901.4 157.2 901.4 163.3 751.5 181.4 751.5 199.5 751.5 205.5 901.4 181.4 901.4" style="fill:#e1e2de;stroke:#545b5e;stroke-linecap:round;stroke-linejoin:round;stroke-width:9px"/><path d="M219.2,490.3c-7-11-21.3-18.6-37.9-18.6s-30.9,7.6-37.9,18.6Z" style="fill:#e1e2de;stroke:#545b5e;stroke-linecap:round;stroke-linejoin:round;stroke-width:9px"/><line x1="151.5" y1="565.9" x2="211.2" y2="565.9" style="fill:none;stroke:#545b5e;stroke-linecap:round;stroke-miterlimit:10;stroke-width:9px"/><line x1="181.4" y1="568.5" x2="181.4" y2="751.5" style="fill:none;stroke:#545b5e;stroke-linecap:round;stroke-miterlimit:10;stroke-width:9px"/></g><g id="sky"><g id="bird3"><path d="M744.5,227.1a26.9,26.9,0,0,1,26.8,26.8" style="fill:none;stroke:#545b5e;stroke-linecap:round;stroke-miterlimit:10;stroke-width:9px"/><path d="M798.1,227.1a26.9,26.9,0,0,0-26.8,26.8" style="fill:none;stroke:#545b5e;stroke-linecap:round;stroke-miterlimit:10;stroke-width:9px"/></g><g id="bird2"><path d="M791.9,252.8a17.8,17.8,0,0,1,17.7,17.7" style="fill:none;stroke:#545b5e;stroke-linecap:round;stroke-miterlimit:10;stroke-width:9px"/><path d="M827.4,252.8a17.8,17.8,0,0,0-17.7,17.7" style="fill:none;stroke:#545b5e;stroke-linecap:round;stroke-miterlimit:10;stroke-width:9px"/></g><g id="bird1"><path d="M720.3,280a12.9,12.9,0,0,1,12.9,12.9" style="fill:none;stroke:#545b5e;stroke-linecap:round;stroke-miterlimit:10;stroke-width:9px"/><path d="M746,280a12.9,12.9,0,0,0-12.9,12.9" style="fill:none;stroke:#545b5e;stroke-linecap:round;stroke-miterlimit:10;stroke-width:9px"/></g><path id="cloud3" d="M325.7,201.9a35.6,35.6,0,0,0-29.5-15.1h-1.3a49,49,0,0,0-88.3,10.3A24.2,24.2,0,0,0,183,221.4H310.3" style="fill:#e6e6e7;stroke:#545b5e;stroke-linecap:round;stroke-linejoin:round;stroke-width:9px"/><path id="cloud2" d="M409.2,246a28.5,28.5,0,0,0-28.8-27.7h-1.1a39.2,39.2,0,0,0-70.7,8.3A19.4,19.4,0,0,0,289.9,246H409.2Z" style="fill:#e6e6e7;stroke:#545b5e;stroke-linecap:round;stroke-linejoin:round;stroke-width:9px"/><path id="cloud1" d="M1222.1,329.2a32,32,0,0,0-40.9-28.5,32,32,0,0,0-42.8-7.2,41.3,41.3,0,0,0-65.7,18.8,20.4,20.4,0,0,0-19.5,16.9Z" style="fill:#e6e6e7;stroke:#545b5e;stroke-linecap:round;stroke-linejoin:round;stroke-width:9px"/></g></svg>