<svg id="city_art" xmlns="http://www.w3.org/2000/svg" viewBox="0 0 1400 980">
    <defs>
        <style>.cls-1, .cls-10, .cls-11, .cls-8 {
            fill: #e7eeef;
        }
        
        .cls-1, .cls-35, .cls-36, .cls-38, .cls-7 {
            fill-rule: evenodd;
        }
        
        .cls-13, .cls-14, .cls-2, .cls-24, .cls-29, .cls-3, .cls-33, .cls-4, .cls-5 {
            fill: none;
        }
        
        .cls-10, .cls-11, .cls-12, .cls-13, .cls-14, .cls-16, .cls-17, .cls-18, .cls-19, .cls-2, .cls-20, .cls-21, .cls-22, .cls-23, .cls-24, .cls-25, .cls-26, .cls-27, .cls-28, .cls-29, .cls-3, .cls-30, .cls-4, .cls-40, .cls-41, .cls-42, .cls-5, .cls-6 {
            stroke: #505b5e;
        }
        
        .cls-2, .cls-23, .cls-26, .cls-29, .cls-3, .cls-4, .cls-5, .cls-6 {
            stroke-miterlimit: 10;
        }
        
        .cls-3 {
            stroke-dasharray: 1 10.02;
        }
        
        .cls-4 {
            stroke-dasharray: 1 10.01;
        }
        
        .cls-10, .cls-11, .cls-12, .cls-13, .cls-14, .cls-16, .cls-17, .cls-18, .cls-19, .cls-20, .cls-21, .cls-22, .cls-25, .cls-26, .cls-27, .cls-28, .cls-30, .cls-33, .cls-40, .cls-41, .cls-42, .cls-5, .cls-6 {
            stroke-linecap: round;
        }
        
        .cls-11, .cls-13, .cls-16, .cls-20, .cls-21, .cls-22, .cls-25, .cls-26, .cls-29, .cls-40, .cls-41, .cls-42, .cls-5, .cls-6 {
            stroke-width: 9px;
        }
        
        .cls-30, .cls-6 {
            fill: #cec196;
        }
        
        .cls-15, .cls-16, .cls-7 {
            fill: #cbe2e3;
        }
        
        .cls-21, .cls-26, .cls-27, .cls-35, .cls-9 {
            fill: #e2e3df;
        }
        
        .cls-10, .cls-11, .cls-12, .cls-13, .cls-14, .cls-16, .cls-17, .cls-18, .cls-19, .cls-20, .cls-21, .cls-22, .cls-24, .cls-25, .cls-27, .cls-28, .cls-30, .cls-33, .cls-40, .cls-41, .cls-42 {
            stroke-linejoin: round;
        }
        
        .cls-10, .cls-12, .cls-14, .cls-17, .cls-18, .cls-19, .cls-23, .cls-24, .cls-27, .cls-28, .cls-30 {
            stroke-width: 2px;
        }
        
        .cls-12 {
            fill: #a6a197;
        }
        
        .cls-17, .cls-20 {
            fill: #d4d4cf;
        }
        
        .cls-18 {
            fill: #d0a293;
        }
        
        .cls-19, .cls-42 {
            fill: #e6e7e8;
        }
        
        .cls-22 {
            fill: #bdbdbb;
        }
        
        .cls-23 {
            fill: #cfdccf;
        }
        
        .cls-25 {
            fill: #b39087;
        }
        
        .cls-28, .cls-37 {
            fill: #e6847b;
        }
        
        .cls-31 {
            fill: #9ac391;
        }
        
        .cls-32 {
            fill: #a7d296;
        }
        
        .cls-33 {
            stroke: #81807a;
            stroke-width: 4px;
        }
        
        .cls-34 {
            opacity: 0.13;
        }
        
        .cls-36, .cls-41 {
            fill: #6f7380;
        }
        
        .cls-38, .cls-39 {
            fill: #505b5e;
        }
        
        .cls-40 {
            fill: #81807a;
        }</style>
    </defs>
    <title>city with rail 2</title>
    <g id="background">
        <polygon class="cls-1" points="0 0 1400 0 1400 980 0 980 0 0 0 0"/>
        <polyline class="cls-2" points="0 0.5 0 0 0.5 0"/>
        <line class="cls-3" x1="10.52" x2="1394.49"/>
        <polyline class="cls-2" points="1399.5 0 1400 0 1400 0.5"/>
        <line class="cls-4" x1="1400" y1="10.51" x2="1400" y2="974.5"/>
        <polyline class="cls-2" points="1400 979.5 1400 980 1399.5 980"/>
        <line class="cls-3" x1="1389.48" y1="980" x2="5.51" y2="980"/>
        <polyline class="cls-2" points="0.5 980 0 980 0 979.5"/>
        <line class="cls-4" y1="969.49" y2="5.51"/>
    </g>
    <g id="sun">
        <line class="cls-5" x1="802.17" y1="29.79" x2="801.99" y2="46.27"/>
        <line class="cls-5" x1="780.66" y1="33.34" x2="786.12" y2="48.89"/>
        <line class="cls-5" x1="761.66" y1="44.03" x2="772.11" y2="56.77"/>
        <line class="cls-5" x1="747.46" y1="60.57" x2="761.64" y2="68.97"/>
        <line class="cls-5" x1="739.77" y1="80.97" x2="755.97" y2="84.02"/>
        <line class="cls-5" x1="739.53" y1="102.77" x2="755.79" y2="100.09"/>
        <line class="cls-5" x1="746.76" y1="123.34" x2="761.12" y2="115.26"/>
        <line class="cls-5" x1="760.58" y1="140.2" x2="771.32" y2="127.69"/>
        <line class="cls-5" x1="779.34" y1="151.31" x2="785.15" y2="135.88"/>
        <line class="cls-5" x1="800.77" y1="155.33" x2="800.95" y2="138.85"/>
        <line class="cls-5" x1="822.28" y1="151.79" x2="816.81" y2="136.24"/>
        <line class="cls-5" x1="841.28" y1="141.1" x2="830.83" y2="128.35"/>
        <line class="cls-5" x1="855.48" y1="124.56" x2="841.3" y2="116.16"/>
        <line class="cls-5" x1="863.16" y1="104.15" x2="846.96" y2="101.11"/>
        <line class="cls-5" x1="863.41" y1="82.35" x2="847.14" y2="85.03"/>
        <line class="cls-5" x1="856.18" y1="61.78" x2="841.81" y2="69.87"/>
        <line class="cls-5" x1="842.35" y1="44.93" x2="831.62" y2="57.44"/>
        <line class="cls-5" x1="823.6" y1="33.82" x2="817.79" y2="49.24"/>
        <circle class="cls-6" cx="801.47" cy="92.56" r="25.24"/>
    </g>
    <g id="sky_back">
        <g id="smog2">
            <line class="cls-5" x1="133.3" y1="382.33" x2="210.83" y2="382.33"/>
            <line class="cls-5" x1="232.83" y1="382.33" x2="255" y2="382.33"/>
        </g>
        <g id="smog3">
            <line class="cls-5" x1="247.33" y1="315" x2="275.33" y2="315"/>
            <line class="cls-5" x1="293.33" y1="315" x2="370.5" y2="315"/>
        </g>
        <g id="smog1">
            <line class="cls-5" x1="927.01" y1="201.67" x2="950.42" y2="201.67"/>
            <line class="cls-5" x1="967.5" y1="201.67" x2="1080" y2="201.67"/>
            <line class="cls-5" x1="1118.08" y1="201.67" x2="1095.83" y2="201.67"/>
        </g>
    </g>
    <g id="back_buildings">
        <path class="cls-7"
              d="M1045.19,284.91v78.78H941.46v-47.6h.84a6.07,6.07,0,0,0,6.08-6.07V292.93a6.07,6.07,0,0,0-6.08-6.07H835.41v-9.68h5.66v-16H795.82v16h6v9.68H788.5a6.07,6.07,0,0,0-6.07,6.07V310a6.07,6.07,0,0,0,6.07,6.07h.85V618.37a6.07,6.07,0,0,0,6.07,6.07h330l.42-384.76Zm-235.86-7.74h18.54v9.68H809.33Z"/>
        <path class="cls-7"
              d="M583,287.78H491.19a5.16,5.16,0,0,0-5.16,5.16V310a5.16,5.16,0,0,0,5.16,5.16H492V618.37a6.07,6.07,0,0,0,6.07,6.07H686.57l.54-308.34V127.65L583,186.06Z"/>
        <path class="cls-7"
              d="M442.75,392.32H333.63V322.2l-84.32-40.27.43,342.51H437.16c2.71,0,4.92-1.88,4.92-4.18v-209h.68c2.31,0,4.18-1.59,4.18-3.56V395.88C446.93,393.92,445.06,392.32,442.75,392.32Z"/>
    </g>
    <g id="front_buildings">
        <g id="building2">
            <rect class="cls-8" x="389.3" y="534.18" width="228.02" height="85.97"/>
            <rect class="cls-9" x="411.06" y="290.94" width="184.49" height="243.24"/>
            <rect class="cls-10" x="411.06" y="333.06" width="184.49" height="16.73"/>
            <rect class="cls-10" x="411.06" y="404.19" width="184.49" height="16.73"/>
            <rect class="cls-10" x="411.06" y="475.33" width="184.49" height="16.73"/>
            <rect class="cls-11" x="444.42" y="258.86" width="117.77" height="32.08"/>
            <rect class="cls-11" x="462.61" y="228.24" width="81.4" height="30.62"/>
            <rect class="cls-12" x="411.06" y="555" width="35.14" height="65.15"/>
            <rect class="cls-12" x="560.41" y="555" width="35.14" height="65.15"/>
            <rect class="cls-12" x="485.74" y="555" width="35.14" height="65.15"/>
            <line class="cls-13" x1="503.31" y1="227.63" x2="503.31" y2="189.36"/>
            <line class="cls-14" x1="444.9" y1="290.94" x2="444.9" y2="532.25"/>
            <line class="cls-14" x1="561.72" y1="290.94" x2="561.72" y2="532.25"/>
            <line class="cls-14" x1="483.84" y1="290.94" x2="483.84" y2="532.25"/>
            <line class="cls-14" x1="522.78" y1="290.94" x2="522.78" y2="532.25"/>
            <rect class="cls-13" x="389.3" y="534.18" width="228.02" height="85.97"/>
            <rect class="cls-13" x="411.06" y="290.94" width="184.49" height="243.24"/>
        </g>
        <g id="building3">
            <rect class="cls-15" x="303.92" y="469.62" width="127.75" height="149.8"/>
            <rect class="cls-16" x="321.26" y="373.09" width="93.05" height="96.54"/>
            <line class="cls-14" x1="304.44" y1="494.68" x2="431.14" y2="494.68"/>
            <line class="cls-14" x1="304.44" y1="518.52" x2="431.14" y2="518.52"/>
            <line class="cls-14" x1="304.44" y1="542.36" x2="431.14" y2="542.36"/>
            <line class="cls-14" x1="304.44" y1="566.2" x2="431.14" y2="566.2"/>
            <line class="cls-14" x1="304.44" y1="590.05" x2="341.27" y2="590.05"/>
            <line class="cls-14" x1="431.64" y1="590.05" x2="394.86" y2="590.05"/>
            <line class="cls-14" x1="415.47" y1="470.82" x2="415.47" y2="619.67"/>
            <line class="cls-14" x1="391.63" y1="470.82" x2="391.63" y2="565.4"/>
            <line class="cls-14" x1="367.79" y1="470.82" x2="367.79" y2="565.4"/>
            <line class="cls-14" x1="343.95" y1="470.82" x2="343.95" y2="565.4"/>
            <line class="cls-14" x1="320.11" y1="470.82" x2="320.11" y2="569.18"/>
            <line class="cls-14" x1="320.11" y1="619.67" x2="320.11" y2="569.18"/>
            <line class="cls-14" x1="321.29" y1="397.27" x2="413.93" y2="397.27"/>
            <line class="cls-14" x1="321.29" y1="421.11" x2="413.93" y2="421.11"/>
            <line class="cls-14" x1="321.29" y1="444.95" x2="413.93" y2="444.95"/>
            <line class="cls-14" x1="391.63" y1="373.41" x2="391.63" y2="473.67"/>
            <line class="cls-14" x1="367.79" y1="373.41" x2="367.79" y2="473.67"/>
            <line class="cls-14" x1="343.95" y1="373.41" x2="343.95" y2="473.67"/>
            <polyline class="cls-17" points="394.25 566.51 394.25 619.42 341.83 619.42 341.83 566.51"/>
            <rect class="cls-18" x="330.52" y="556.58" width="75.03" height="9.66"/>
            <rect class="cls-19" x="352.52" y="575.49" width="30.76" height="43.93"/>
            <rect class="cls-13" x="303.92" y="469.62" width="127.75" height="149.8"/>
        </g>
        <g id="building1">
            <rect class="cls-20" x="562.24" y="288.67" width="120.69" height="41.22"/>
            <rect class="cls-11" x="522.69" y="329.89" width="199.81" height="290.93"/>
            <polygon class="cls-21" points="647.53 269.01 596.63 269.01 586.5 288.67 658.67 288.67 647.53 269.01"/>
            <polygon class="cls-22"
                     points="647.53 269.01 597.65 269.01 597.65 236.07 622.59 208.81 647.53 236.07 647.53 269.01"/>
            <polyline class="cls-13" points="622.59 287.96 622.59 189.36 622.59 189.36"/>
            <rect class="cls-23" x="545.91" y="352.13" width="17.21" height="25.17"/>
            <rect class="cls-23" x="579.94" y="352.13" width="17.21" height="25.17"/>
            <rect class="cls-23" x="613.98" y="352.13" width="17.21" height="25.17"/>
            <rect class="cls-23" x="648.02" y="352.13" width="17.21" height="25.17"/>
            <rect class="cls-23" x="682.06" y="352.13" width="17.21" height="25.17"/>
            <rect class="cls-23" x="545.91" y="394.82" width="17.21" height="25.17"/>
            <rect class="cls-23" x="579.94" y="394.82" width="17.21" height="25.17"/>
            <rect class="cls-23" x="613.98" y="394.82" width="17.21" height="25.17"/>
            <rect class="cls-23" x="648.02" y="394.82" width="17.21" height="25.17"/>
            <rect class="cls-23" x="682.06" y="394.82" width="17.21" height="25.17"/>
            <rect class="cls-23" x="545.91" y="480.22" width="17.21" height="25.17"/>
            <rect class="cls-23" x="579.94" y="480.22" width="17.21" height="25.17"/>
            <rect class="cls-23" x="613.98" y="480.22" width="17.21" height="25.17"/>
            <rect class="cls-23" x="648.02" y="480.22" width="17.21" height="25.17"/>
            <rect class="cls-23" x="682.06" y="480.22" width="17.21" height="25.17"/>
            <rect class="cls-23" x="545.91" y="565.61" width="17.21" height="25.17"/>
            <rect class="cls-23" x="579.94" y="565.61" width="17.21" height="25.17"/>
            <rect class="cls-23" x="613.98" y="565.61" width="17.21" height="25.17"/>
            <rect class="cls-23" x="648.02" y="565.61" width="17.21" height="25.17"/>
            <rect class="cls-23" x="682.06" y="565.61" width="17.21" height="25.17"/>
            <line class="cls-14" x1="545.91" y1="437.52" x2="699.27" y2="437.52"/>
            <line class="cls-14" x1="545.91" y1="462.69" x2="699.27" y2="462.69"/>
            <line class="cls-14" x1="545.91" y1="450.11" x2="699.27" y2="450.11"/>
            <line class="cls-24" x1="581.38" y1="302.98" x2="663.8" y2="302.98"/>
            <line class="cls-24" x1="581.38" y1="315.57" x2="663.8" y2="315.57"/>
            <line class="cls-14" x1="545.91" y1="522.92" x2="699.27" y2="522.92"/>
            <line class="cls-14" x1="545.91" y1="548.08" x2="699.27" y2="548.08"/>
            <line class="cls-14" x1="545.91" y1="535.5" x2="699.27" y2="535.5"/>
        </g>
        <g id="town_hall">
            <g id="back_border">
                <rect class="cls-9" x="770.95" y="530.82" width="204.09" height="89.89"/>
                <polygon class="cls-25" points="964.58 517.45 781.42 517.45 770.95 530.82 975.04 530.82 964.58 517.45"/>
                <line class="cls-13" x1="765.96" y1="530.82" x2="980.04" y2="530.82"/>
                <rect class="cls-21" x="814.49" y="427.43" width="117.03" height="89.89"/>
                <polygon class="cls-25" points="921.05 414.06 824.95 414.06 814.49 427.43 931.51 427.43 921.05 414.06"/>
                <line class="cls-13" x1="809.49" y1="427.43" x2="936.51" y2="427.43"/>
                <rect class="cls-26" x="841.46" y="402.08" width="63.08" height="11.98"/>
                <rect class="cls-6" x="831.13" y="331.33" width="83.73" height="70.75"/>
                <line class="cls-5" x1="825.87" y1="402.08" x2="920.13" y2="402.08"/>
                <line class="cls-5" x1="825.87" y1="331.33" x2="920.13" y2="331.33"/>
                <polygon class="cls-27"
                         points="885.36 281.74 860.64 281.74 845.26 281.74 845.26 331.32 860.64 331.32 885.36 331.32 900.74 331.32 900.74 281.74 885.36 281.74"/>
                <path class="cls-28" d="M900.74,281.74a27.74,27.74,0,0,0-55.48,0Z"/>
                <path class="cls-5"
                      d="M873,254a27.74,27.74,0,0,0-27.74,27.74h0v49.58h55.48V281.74A27.74,27.74,0,0,0,873,254Z"/>
                <line class="cls-5" x1="873" y1="217.5" x2="873" y2="254"/>
            </g>
            <rect class="cls-14" x="841.46" y="402.08" width="63.08" height="11.98"/>
            <rect class="cls-14" x="831.13" y="331.33" width="83.73" height="70.75"/>
            <rect class="cls-14" x="814.49" y="427.43" width="117.03" height="89.89"/>
            <polygon class="cls-14" points="921.05 414.06 824.95 414.06 814.49 427.43 931.51 427.43 921.05 414.06"/>
            <line class="cls-14" x1="809.49" y1="427.43" x2="936.51" y2="427.43"/>
            <rect class="cls-14" x="770.95" y="530.82" width="204.09" height="89.89"/>
            <polygon class="cls-14" points="964.58 517.45 781.42 517.45 770.95 530.82 975.04 530.82 964.58 517.45"/>
            <line class="cls-14" x1="765.96" y1="530.82" x2="980.04" y2="530.82"/>
            <polygon class="cls-14" points="964.58 517.45 781.42 517.45 770.95 530.82 975.04 530.82 964.58 517.45"/>
            <line class="cls-14" x1="765.96" y1="530.82" x2="980.04" y2="530.82"/>
            <line class="cls-14" x1="825.87" y1="402.08" x2="920.13" y2="402.08"/>
            <line class="cls-14" x1="825.87" y1="331.33" x2="920.13" y2="331.33"/>
            <g id="clock">
                <circle id="clock_round" class="cls-27" cx="873" cy="366.7" r="23.38"/>
                <line id="minute" class="cls-14" x1="873" y1="367.53" x2="873" y2="349.38"/>
                <line id="hour" class="cls-14" x1="886.36" y1="367.53" x2="873" y2="367.53"/>
            </g>
            <polygon class="cls-14"
                     points="885.36 281.74 860.64 281.74 845.26 281.74 845.26 331.32 860.64 331.32 885.36 331.32 900.74 331.32 900.74 281.74 885.36 281.74"/>
            <polygon class="cls-14"
                     points="853.99 281.74 848.61 281.74 845.26 281.74 845.26 331.32 848.61 331.32 853.99 331.32 857.34 331.32 857.34 281.74 853.99 281.74"/>
            <polygon class="cls-14"
                     points="897.39 281.74 892.01 281.74 888.66 281.74 888.66 331.32 892.01 331.32 897.39 331.32 900.74 331.32 900.74 281.74 897.39 281.74"/>
            <polygon class="cls-14"
                     points="875.69 281.74 870.31 281.74 866.96 281.74 866.96 331.32 870.31 331.32 875.69 331.32 879.04 331.32 879.04 281.74 875.69 281.74"/>
            <path class="cls-14" d="M900.74,281.74a27.74,27.74,0,0,0-55.48,0Z"/>
            <line class="cls-29" x1="830.97" y1="443.5" x2="830.97" y2="461.2"/>
            <line class="cls-29" x1="844.98" y1="443.5" x2="844.98" y2="461.2"/>
            <line class="cls-29" x1="858.99" y1="443.5" x2="858.99" y2="461.2"/>
            <line class="cls-29" x1="873" y1="443.5" x2="873" y2="461.2"/>
            <line class="cls-29" x1="887.01" y1="443.5" x2="887.01" y2="461.2"/>
            <line class="cls-29" x1="901.02" y1="443.5" x2="901.02" y2="461.2"/>
            <line class="cls-29" x1="915.02" y1="443.5" x2="915.02" y2="461.2"/>
            <path class="cls-30"
                  d="M810.22,547.4h0A20.71,20.71,0,0,0,789.58,568v52.67h41.29V568A20.71,20.71,0,0,0,810.22,547.4Z"/>
            <path class="cls-30"
                  d="M873,547.4h0A20.71,20.71,0,0,0,852.35,568v52.67h41.29V568A20.71,20.71,0,0,0,873,547.4Z"/>
            <path class="cls-30"
                  d="M935.78,547.4h0A20.71,20.71,0,0,0,915.13,568v52.67h41.29V568A20.71,20.71,0,0,0,935.78,547.4Z"/>
            <rect class="cls-13" x="770.95" y="530.82" width="204.09" height="89.89"/>
        </g>
        <g id="tree3">
            <path class="cls-31" d="M254.37,530.13v62.22a31.11,31.11,0,1,1,0-62.22Z"/>
            <path class="cls-32"
                  d="M285.48,561.24a31.11,31.11,0,0,1-31.11,31.11V530.13A31.11,31.11,0,0,1,285.48,561.24Z"/>
            <line class="cls-33" x1="254.37" y1="559.05" x2="254.37" y2="620.71"/>
            <polyline class="cls-33" points="260.64 569.99 254.37 576.26 248.09 569.99"/>
            <circle class="cls-13" cx="254.37" cy="561.24" r="31.11"/>
        </g>
        <g id="tree2">
            <path class="cls-31" d="M962.27,530.13v62.22a31.11,31.11,0,1,1,0-62.22Z"/>
            <path class="cls-32"
                  d="M993.38,561.24a31.11,31.11,0,0,1-31.11,31.11V530.13A31.11,31.11,0,0,1,993.38,561.24Z"/>
            <line class="cls-33" x1="962.26" y1="559.05" x2="962.26" y2="620.71"/>
            <polyline class="cls-33" points="968.53 569.99 962.26 576.26 955.99 569.99"/>
            <circle class="cls-13" cx="962.26" cy="561.24" r="31.11"/>
        </g>
        <g id="tree1">
            <path class="cls-31" d="M1046.94,530.13v62.22a31.11,31.11,0,1,1,0-62.22Z"/>
            <path class="cls-32"
                  d="M1078.05,561.24a31.11,31.11,0,0,1-31.11,31.11V530.13A31.11,31.11,0,0,1,1078.05,561.24Z"/>
            <line class="cls-33" x1="1046.94" y1="559.05" x2="1046.94" y2="620.71"/>
            <polyline class="cls-33" points="1053.21 569.99 1046.94 576.26 1040.67 569.99"/>
            <circle class="cls-13" cx="1046.94" cy="561.24" r="31.11"/>
        </g>
    </g>
    <g id="clone_tree" class="cls-34">
        <path class="cls-31" d="M31.12,0V62.22A31.11,31.11,0,1,1,31.12,0Z"/>
        <path class="cls-32" d="M62.23,31.11A31.11,31.11,0,0,1,31.12,62.22V0A31.11,31.11,0,0,1,62.23,31.11Z"/>
        <line class="cls-33" x1="31.12" y1="28.92" x2="31.12" y2="90.58"/>
        <polyline class="cls-33" points="37.39 39.86 31.12 46.13 24.84 39.86"/>
        <circle class="cls-5" cx="31.12" cy="31.11" r="31.11"/>
    </g>
    <rect id="folding_screen" class="cls-8" x="117.06" y="626.71" width="1162.35" height="352.54"/>
    <line id="horizont" class="cls-13" x1="117.06" y1="620.71" x2="1280" y2="620.71"/>
    <g id="railroad_group">
        <g id="train1">
            <path class="cls-35"
                  d="M958.25,653.31H1182.6c6.52,0,10.34-1.84,12.05-4.7,4.38-7.29-5-21.21-18-27.9s-10.59-25.15-38.13-25.15H958.25v57.75Z"/>
            <polygon class="cls-35"
                     points="706.15 595.56 944.37 595.56 944.37 653.31 706.15 653.31 706.15 595.56 706.15 595.56"/>
            <polygon class="cls-36"
                     points="1101.07 604.47 1086.42 604.47 1086.42 613.26 1101.07 613.26 1101.07 604.47 1101.07 604.47"/>
            <polygon class="cls-36"
                     points="1073.03 604.47 1058.38 604.47 1058.38 613.26 1073.03 613.26 1073.03 604.47 1073.03 604.47"/>
            <polygon class="cls-36"
                     points="1045 604.47 1030.35 604.47 1030.35 613.26 1045 613.26 1045 604.47 1045 604.47"/>
            <polygon class="cls-36"
                     points="1016.96 604.47 1002.31 604.47 1002.31 613.26 1016.96 613.26 1016.96 604.47 1016.96 604.47"/>
            <polygon class="cls-36"
                     points="988.93 604.47 974.27 604.47 974.27 613.26 988.93 613.26 988.93 604.47 988.93 604.47"/>
            <path class="cls-37"
                  d="M958.25,625.4a3.53,3.53,0,0,0,0,7.06l178.09-.14a93,93,0,0,1,18.47,1.87,96.71,96.71,0,0,1,13.9,3.95,80.2,80.2,0,0,1,12.26,6c4.25,2.47,8.27,5.09,11.71,7.42a3.52,3.52,0,0,0,4-5.83c-3.63-2.46-7.84-5.22-12.12-7.7a87.17,87.17,0,0,0-13.39-6.5,103,103,0,0,0-14.89-4.21,98.79,98.79,0,0,0-19.88-2l-178.09.14Z"/>
            <path class="cls-37" d="M944.37,632.34a3.54,3.54,0,0,0,0-7.09H706.15a3.54,3.54,0,0,0,0,7.09Z"/>
            <polygon class="cls-35"
                     points="451.4 595.56 689.63 595.56 689.63 653.31 451.4 653.31 451.4 595.56 451.4 595.56"/>
            <path class="cls-37" d="M689.63,632.34a3.54,3.54,0,1,0,0-7.09H451.4a3.54,3.54,0,0,0,0,7.09Z"/>
            <polygon class="cls-35"
                     points="197.67 595.56 435.89 595.56 435.89 653.31 197.67 653.31 197.67 595.56 197.67 595.56"/>
            <path class="cls-37" d="M435.9,632.34a3.54,3.54,0,0,0,0-7.09H197.67a3.54,3.54,0,0,0,0,7.09Z"/>
            <path class="cls-36"
                  d="M1143,595.74a6.26,6.26,0,0,0-.62,2.72v12.61a6.32,6.32,0,0,0,6.3,6.3H1166a6.31,6.31,0,0,0,4.41-1.82C1164,608,1161,597.26,1143,595.74Z"/>
            <path class="cls-38" d="M1155.43,653.85a6.45,6.45,0,1,0,6.45,6.45,6.45,6.45,0,0,0-6.45-6.45Z"/>
            <path class="cls-38" d="M1133.16,653.85a6.45,6.45,0,1,0,6.45,6.45,6.45,6.45,0,0,0-6.45-6.45Z"/>
            <path class="cls-38" d="M1006.39,653.85a6.45,6.45,0,1,0,6.45,6.45,6.45,6.45,0,0,0-6.45-6.45Z"/>
            <path class="cls-38" d="M984.11,653.85a6.45,6.45,0,1,0,6.45,6.45,6.45,6.45,0,0,0-6.45-6.45Z"/>
            <path class="cls-38" d="M917.78,653.85a6.45,6.45,0,1,0,6.45,6.45,6.45,6.45,0,0,0-6.45-6.45Z"/>
            <path class="cls-38" d="M895.5,653.85A6.45,6.45,0,1,0,902,660.3a6.45,6.45,0,0,0-6.45-6.45Z"/>
            <path class="cls-38" d="M746.24,653.85a6.45,6.45,0,1,0,6.45,6.45,6.45,6.45,0,0,0-6.45-6.45Z"/>
            <path class="cls-38" d="M724,653.85a6.45,6.45,0,1,0,6.45,6.45,6.45,6.45,0,0,0-6.45-6.45Z"/>
            <path class="cls-38" d="M668.51,653.85A6.45,6.45,0,1,0,675,660.3a6.45,6.45,0,0,0-6.45-6.45Z"/>
            <path class="cls-38" d="M646.24,653.85a6.45,6.45,0,1,0,6.45,6.45,6.45,6.45,0,0,0-6.45-6.45Z"/>
            <path class="cls-38" d="M494.93,653.85a6.45,6.45,0,1,0,6.45,6.45,6.45,6.45,0,0,0-6.45-6.45Z"/>
            <path class="cls-38" d="M472.65,653.85a6.45,6.45,0,1,0,6.45,6.45,6.45,6.45,0,0,0-6.45-6.45Z"/>
            <path class="cls-38" d="M414.39,653.85a6.45,6.45,0,1,0,6.45,6.45,6.45,6.45,0,0,0-6.45-6.45Z"/>
            <path class="cls-38" d="M392.12,653.85a6.45,6.45,0,1,0,6.45,6.45,6.45,6.45,0,0,0-6.45-6.45Z"/>
            <path class="cls-38" d="M242.6,653.85A6.45,6.45,0,1,0,249,660.3a6.45,6.45,0,0,0-6.45-6.45Z"/>
            <path class="cls-38" d="M220.33,653.85a6.45,6.45,0,1,0,6.45,6.45,6.45,6.45,0,0,0-6.45-6.45Z"/>
            <path class="cls-39"
                  d="M201.21,599.1v50.67H432.35V599.1ZM435.9,592a3.54,3.54,0,0,1,3.54,3.54v57.75a3.55,3.55,0,0,1-3.54,3.55H197.67a3.54,3.54,0,0,1-3.54-3.55V595.56a3.54,3.54,0,0,1,3.54-3.54Z"/>
            <path class="cls-39"
                  d="M454.94,599.1v50.67H686.09V599.1ZM689.63,592a3.54,3.54,0,0,1,3.54,3.54v57.75a3.55,3.55,0,0,1-3.54,3.55H451.4a3.54,3.54,0,0,1-3.54-3.55V595.56A3.54,3.54,0,0,1,451.4,592Z"/>
            <path class="cls-39"
                  d="M709.69,599.1v50.67H940.83V599.1ZM944.37,592a3.54,3.54,0,0,1,3.54,3.54v57.75a3.54,3.54,0,0,1-3.54,3.55H706.15a3.54,3.54,0,0,1-3.54-3.55V595.56a3.54,3.54,0,0,1,3.54-3.54Z"/>
            <path class="cls-39"
                  d="M958.25,656.86a3.54,3.54,0,0,1-3.54-3.55V595.56a3.54,3.54,0,0,1,3.54-3.54h180.28c19.63,0,25.52,8.5,31.05,16.5,2.5,3.6,4.91,7.1,8.7,9,.84.43,1.69.91,2.53,1.42a44.94,44.94,0,0,1,14.79,14.27c3.6,5.84,4.81,11.91,2.41,16.58-.1.18-.21.38-.34.6a12.07,12.07,0,0,1-6.21,5,24.48,24.48,0,0,1-8.87,1.44Zm224.34-7.09a17.67,17.67,0,0,0,6.33-.94,5.19,5.19,0,0,0,2.69-2l.12-.22c1.17-2.27.21-5.84-2.13-9.63A37.63,37.63,0,0,0,1177.2,625c-.68-.41-1.4-.8-2.15-1.19-5.35-2.75-8.26-7-11.27-11.31-4.51-6.51-9.3-13.44-25.24-13.44H961.79v50.67Z"/>
        </g>
        <g id="front">
            <line class="cls-5" x1="188.33" y1="688.16" x2="617.32" y2="688.16"/>
            <line class="cls-5" x1="668.33" y1="688.16" x2="765.96" y2="688.16"/>
            <line class="cls-5" x1="814.49" y1="688.16" x2="1191.34" y2="688.16"/>
        </g>
        <line id="rail" class="cls-5" x1="127.6" y1="669.16" x2="1251.53" y2="669.16"/>
    </g>
    <path id="lake"
          class="cls-7"
          d="M269.14,700.87H1133.7a17.79,17.79,0,0,1,17.74,17.74h0a17.8,17.8,0,0,1-17.74,17.75H1015.8a17.82,17.82,0,0,0-13.42,17.21h0a17.81,17.81,0,0,0,13.42,17.2h190.3a17.79,17.79,0,0,1,17.75,17.74h0a17.8,17.8,0,0,1-17.75,17.75H937a17.81,17.81,0,0,0-13.42,17.21h0A17.81,17.81,0,0,0,937,840.68h119.8a17.79,17.79,0,0,1,17.74,17.74h0a17.8,17.8,0,0,1-17.74,17.75H311.73A17.8,17.8,0,0,1,294,858.42h0a17.8,17.8,0,0,1,17.75-17.74H416.78a17.8,17.8,0,0,0,17.75-17.75h0a17.82,17.82,0,0,0-11.68-16.67H196.74A17.8,17.8,0,0,1,179,788.52h0a17.79,17.79,0,0,1,17.74-17.74H333A17.8,17.8,0,0,0,350.77,753h0a17.81,17.81,0,0,0-11.68-16.67h-70a17.8,17.8,0,0,1-17.75-17.75h0a17.79,17.79,0,0,1,17.75-17.74Z"/>
    <g id="bench">
        <line class="cls-5" x1="257.35" y1="734.08" x2="540.35" y2="734.08"/>
        <line class="cls-5" x1="257.35" y1="770.88" x2="540.35" y2="770.88"/>
        <line class="cls-5" x1="257.35" y1="807.68" x2="540.35" y2="807.68"/>
        <line class="cls-5" x1="272.95" y1="735.04" x2="272.95" y2="806.7"/>
        <line class="cls-5" x1="524.75" y1="735.04" x2="524.75" y2="806.7"/>
        <rect class="cls-40" x="232.33" y="829.66" width="333.04" height="22.29"/>
        <rect class="cls-41" x="271.53" y="851.95" width="22.29" height="49.44"/>
        <rect class="cls-41" x="503.88" y="851.95" width="22.29" height="49.44"/>
        <polygon class="cls-42"
                 points="181.35 490.26 150.85 490.26 162.79 565.85 181.35 565.85 199.92 565.85 211.86 490.26 181.35 490.26"/>
        <polygon class="cls-21"
                 points="181.35 901.4 157.25 901.4 163.25 751.53 181.35 751.53 199.46 751.53 205.47 901.4 181.35 901.4"/>
        <path class="cls-21" d="M219.23,490.26c-7-11-21.33-18.57-37.88-18.57s-30.88,7.55-37.88,18.57Z"/>
        <line class="cls-5" x1="151.51" y1="565.85" x2="211.2" y2="565.85"/>
        <line class="cls-5" x1="181.35" y1="568.51" x2="181.35" y2="751.53"/>
    </g>
    <g id="sky">
        <g id="bird3">
            <path class="cls-5" d="M744.52,227.09a26.89,26.89,0,0,1,26.81,26.81"/>
            <path class="cls-5" d="M798.13,227.09a26.89,26.89,0,0,0-26.81,26.81"/>
        </g>
        <g id="bird2">
            <path class="cls-5" d="M791.95,252.81a17.77,17.77,0,0,1,17.72,17.72"/>
            <path class="cls-5" d="M827.39,252.81a17.77,17.77,0,0,0-17.72,17.72"/>
        </g>
        <g id="bird1">
            <path class="cls-5" d="M720.26,280a12.9,12.9,0,0,1,12.86,12.86"/>
            <path class="cls-5" d="M746,280a12.9,12.9,0,0,0-12.86,12.86"/>
        </g>
        <path id="cloud3"
              class="cls-42"
              d="M325.66,201.93a35.63,35.63,0,0,0-29.49-15.09c-.45,0-.9,0-1.35,0a49,49,0,0,0-88.35,10.34A24.23,24.23,0,0,0,183,221.44H310.3"/>
        <path id="cloud2"
              class="cls-42"
              d="M409.24,246a28.55,28.55,0,0,0-28.81-27.69l-1.08,0a39.21,39.21,0,0,0-70.69,8.27A19.39,19.39,0,0,0,289.85,246H409.24Z"/>
        <path id="cloud1"
              class="cls-42"
              d="M1222.09,329.21a32,32,0,0,0-40.87-28.53,32,32,0,0,0-42.84-7.23,41.27,41.27,0,0,0-65.67,18.83,20.41,20.41,0,0,0-19.5,16.93Z"/>
    </g>
</svg>