<svg id="city_art" xmlns="http://www.w3.org/2000/svg" viewBox="0 0 1400 980">
    <defs>
        <style>.cls-1, .cls-5, .cls-7, .cls-8 {
            fill: #e7eeef;
        }
        
        .cls-1, .cls-33, .cls-34, .cls-36, .cls-4 {
            fill-rule: evenodd;
        }
        
        .cls-2, .cls-27 {
            fill: #cec196;
        }
        
        .cls-10, .cls-12, .cls-13, .cls-14, .cls-15, .cls-16, .cls-17, .cls-18, .cls-19, .cls-2, .cls-20, .cls-21, .cls-22, .cls-23, .cls-24, .cls-25, .cls-26, .cls-27, .cls-28, .cls-3, .cls-32, .cls-38, .cls-39, .cls-40, .cls-7, .cls-8, .cls-9 {
            stroke: #505b5e;
        }
        
        .cls-10, .cls-12, .cls-13, .cls-14, .cls-15, .cls-16, .cls-17, .cls-18, .cls-2, .cls-22, .cls-23, .cls-24, .cls-25, .cls-27, .cls-3, .cls-31, .cls-32, .cls-38, .cls-39, .cls-40, .cls-7, .cls-8, .cls-9 {
            stroke-linecap: round;
        }
        
        .cls-10, .cls-12, .cls-13, .cls-14, .cls-15, .cls-16, .cls-17, .cls-18, .cls-2, .cls-20, .cls-22, .cls-23, .cls-24, .cls-25, .cls-26, .cls-27, .cls-3, .cls-31, .cls-38, .cls-39, .cls-40, .cls-7, .cls-8, .cls-9 {
            stroke-linejoin: round;
        }
        
        .cls-12, .cls-16, .cls-17, .cls-18, .cls-2, .cls-21, .cls-22, .cls-26, .cls-28, .cls-3, .cls-32, .cls-38, .cls-39, .cls-40, .cls-8 {
            stroke-width: 9px;
        }
        
        .cls-10, .cls-20, .cls-26, .cls-28, .cls-3, .cls-31, .cls-32 {
            fill: none;
        }
        
        .cls-11, .cls-12, .cls-25, .cls-4 {
            fill: #cbe2e3;
        }
        
        .cls-17, .cls-21, .cls-23, .cls-33, .cls-6 {
            fill: #e2e3df;
        }
        
        .cls-10, .cls-13, .cls-14, .cls-15, .cls-19, .cls-20, .cls-23, .cls-24, .cls-25, .cls-27, .cls-7, .cls-9 {
            stroke-width: 2px;
        }
        
        .cls-9 {
            fill: #a6a197;
        }
        
        .cls-13 {
            fill: #d4d4cf;
        }
        
        .cls-14 {
            fill: #d0a293;
        }
        
        .cls-15, .cls-40 {
            fill: #e6e7e8;
        }
        
        .cls-16, .cls-19 {
            fill: #cfdccf;
        }
        
        .cls-18 {
            fill: #bdbdbb;
        }
        
        .cls-19, .cls-21, .cls-28, .cls-32 {
            stroke-miterlimit: 10;
        }
        
        .cls-22 {
            fill: #b39087;
        }
        
        .cls-24, .cls-35 {
            fill: #e6847b;
        }
        
        .cls-29 {
            fill: #9ac391;
        }
        
        .cls-30 {
            fill: #a7d296;
        }
        
        .cls-31 {
            stroke: #81807a;
            stroke-width: 4px;
        }
        
        .cls-34, .cls-39 {
            fill: #6f7380;
        }
        
        .cls-36, .cls-37 {
            fill: #505b5e;
        }
        
        .cls-38 {
            fill: #81807a;
        }</style>
    </defs>
    <title>city with rail 2</title>
    <polygon id="background" class="cls-1" points="0 3.17 1400 3.17 1400 983.17 0 983.17 0 3.17 0 3.17"/>
    <g id="sun">
        <line class="cls-2" x1="802.17" y1="29.79" x2="801.99" y2="46.27"/>
        <line class="cls-2" x1="780.66" y1="33.34" x2="786.12" y2="48.89"/>
        <line class="cls-2" x1="761.66" y1="44.03" x2="772.11" y2="56.77"/>
        <line class="cls-2" x1="747.46" y1="60.57" x2="761.64" y2="68.97"/>
        <line class="cls-2" x1="739.77" y1="80.97" x2="755.97" y2="84.02"/>
        <line class="cls-2" x1="739.53" y1="102.77" x2="755.79" y2="100.09"/>
        <line class="cls-2" x1="746.76" y1="123.34" x2="761.12" y2="115.26"/>
        <line class="cls-2" x1="760.58" y1="140.2" x2="771.32" y2="127.69"/>
        <line class="cls-2" x1="779.34" y1="151.31" x2="785.15" y2="135.88"/>
        <line class="cls-2" x1="800.77" y1="155.33" x2="800.95" y2="138.85"/>
        <line class="cls-2" x1="822.28" y1="151.79" x2="816.81" y2="136.24"/>
        <line class="cls-2" x1="841.28" y1="141.1" x2="830.83" y2="128.35"/>
        <line class="cls-2" x1="855.48" y1="124.56" x2="841.3" y2="116.16"/>
        <line class="cls-2" x1="863.16" y1="104.15" x2="846.96" y2="101.11"/>
        <line class="cls-2" x1="863.41" y1="82.35" x2="847.14" y2="85.03"/>
        <line class="cls-2" x1="856.18" y1="61.78" x2="841.81" y2="69.87"/>
        <line class="cls-2" x1="842.35" y1="44.93" x2="831.62" y2="57.44"/>
        <line class="cls-2" x1="823.6" y1="33.82" x2="817.79" y2="49.24"/>
        <circle class="cls-2" cx="801.47" cy="92.56" r="25.24"/>
    </g>
    <g id="sky_back">
        <g id="smog2">
            <line class="cls-3" x1="133.3" y1="382.33" x2="210.83" y2="382.33"/>
            <line class="cls-3" x1="232.83" y1="382.33" x2="255" y2="382.33"/>
        </g>
        <g id="smog3">
            <line class="cls-3" x1="247.33" y1="315" x2="275.33" y2="315"/>
            <line class="cls-3" x1="293.33" y1="315" x2="370.5" y2="315"/>
        </g>
        <g id="smog1">
            <line class="cls-3" x1="927.01" y1="201.67" x2="950.42" y2="201.67"/>
            <line class="cls-3" x1="967.5" y1="201.67" x2="1080" y2="201.67"/>
            <line class="cls-3" x1="1118.08" y1="201.67" x2="1095.83" y2="201.67"/>
        </g>
    </g>
    <g id="back_buildings">
        <path class="cls-4"
              d="M1045.19,284.91v78.78H941.46v-47.6h.84a6.07,6.07,0,0,0,6.08-6.07V292.93a6.07,6.07,0,0,0-6.08-6.07H835.41v-9.68h5.66v-16H795.82v16h6v9.68H788.5a6.07,6.07,0,0,0-6.07,6.07V310a6.07,6.07,0,0,0,6.07,6.07h.85V618.37a6.07,6.07,0,0,0,6.07,6.07h330l.42-384.76Zm-235.86-7.74h18.54v9.68H809.33Z"/>
        <path class="cls-4"
              d="M583,287.78H491.19a5.16,5.16,0,0,0-5.16,5.16V310a5.16,5.16,0,0,0,5.16,5.16H492V618.37a6.07,6.07,0,0,0,6.07,6.07H686.57l.54-308.34V127.65L583,186.06Z"/>
        <path class="cls-4"
              d="M442.75,392.32H333.63V322.2l-84.32-40.27.43,342.51H437.16c2.71,0,4.92-1.88,4.92-4.18v-209h.68c2.31,0,4.18-1.59,4.18-3.56V395.88C446.93,393.92,445.06,392.32,442.75,392.32Z"/>
    </g>
    <g id="front_buildings">
        <g id="building2">
            <rect class="cls-5" x="389.3" y="534.18" width="228.02" height="85.97"/>
            <rect class="cls-6" x="411.06" y="290.94" width="184.49" height="243.24"/>
            <rect class="cls-7" x="411.06" y="333.06" width="184.49" height="16.73"/>
            <rect class="cls-7" x="411.06" y="404.19" width="184.49" height="16.73"/>
            <rect class="cls-7" x="411.06" y="475.33" width="184.49" height="16.73"/>
            <rect class="cls-8" x="444.42" y="258.86" width="117.77" height="32.08"/>
            <rect class="cls-8" x="462.61" y="228.24" width="81.4" height="30.62"/>
            <rect class="cls-9" x="411.06" y="555" width="35.14" height="65.15"/>
            <rect class="cls-9" x="560.41" y="555" width="35.14" height="65.15"/>
            <rect class="cls-9" x="485.74" y="555" width="35.14" height="65.15"/>
            <line class="cls-3" x1="503.31" y1="227.63" x2="503.31" y2="189.36"/>
            <line class="cls-10" x1="444.9" y1="290.94" x2="444.9" y2="532.25"/>
            <line class="cls-10" x1="561.72" y1="290.94" x2="561.72" y2="532.25"/>
            <line class="cls-10" x1="483.84" y1="290.94" x2="483.84" y2="532.25"/>
            <line class="cls-10" x1="522.78" y1="290.94" x2="522.78" y2="532.25"/>
            <rect class="cls-3" x="389.3" y="534.18" width="228.02" height="85.97"/>
            <rect class="cls-3" x="411.06" y="290.94" width="184.49" height="243.24"/>
        </g>
        <g id="building3">
            <rect class="cls-11" x="303.92" y="469.62" width="127.75" height="149.8"/>
            <rect class="cls-12" x="321.26" y="373.09" width="93.05" height="96.54"/>
            <line class="cls-10" x1="304.44" y1="494.68" x2="431.14" y2="494.68"/>
            <line class="cls-10" x1="304.44" y1="518.52" x2="431.14" y2="518.52"/>
            <line class="cls-10" x1="304.44" y1="542.36" x2="431.14" y2="542.36"/>
            <line class="cls-10" x1="304.44" y1="566.2" x2="431.14" y2="566.2"/>
            <line class="cls-10" x1="304.44" y1="590.05" x2="341.27" y2="590.05"/>
            <line class="cls-10" x1="431.64" y1="590.05" x2="394.86" y2="590.05"/>
            <line class="cls-10" x1="415.47" y1="470.82" x2="415.47" y2="619.67"/>
            <line class="cls-10" x1="391.63" y1="470.82" x2="391.63" y2="565.4"/>
            <line class="cls-10" x1="367.79" y1="470.82" x2="367.79" y2="565.4"/>
            <line class="cls-10" x1="343.95" y1="470.82" x2="343.95" y2="565.4"/>
            <line class="cls-10" x1="320.11" y1="470.82" x2="320.11" y2="569.18"/>
            <line class="cls-10" x1="320.11" y1="619.67" x2="320.11" y2="569.18"/>
            <line class="cls-10" x1="321.29" y1="397.27" x2="413.93" y2="397.27"/>
            <line class="cls-10" x1="321.29" y1="421.11" x2="413.93" y2="421.11"/>
            <line class="cls-10" x1="321.29" y1="444.95" x2="413.93" y2="444.95"/>
            <line class="cls-10" x1="391.63" y1="373.41" x2="391.63" y2="473.67"/>
            <line class="cls-10" x1="367.79" y1="373.41" x2="367.79" y2="473.67"/>
            <line class="cls-10" x1="343.95" y1="373.41" x2="343.95" y2="473.67"/>
            <polyline class="cls-13" points="394.25 566.51 394.25 619.42 341.83 619.42 341.83 566.51"/>
            <rect class="cls-14" x="330.52" y="556.58" width="75.03" height="9.66"/>
            <rect class="cls-15" x="352.52" y="575.49" width="30.76" height="43.93"/>
            <rect class="cls-3" x="303.92" y="469.62" width="127.75" height="149.8"/>
        </g>
        <g id="building1">
            <rect class="cls-16" x="562.24" y="288.67" width="120.69" height="41.22"/>
            <rect class="cls-8" x="522.69" y="329.89" width="199.81" height="290.93"/>
            <polygon class="cls-17" points="647.53 269.01 596.63 269.01 586.5 288.67 658.67 288.67 647.53 269.01"/>
            <polygon class="cls-18"
                     points="647.53 269.01 597.65 269.01 597.65 236.07 622.59 208.81 647.53 236.07 647.53 269.01"/>
            <polyline class="cls-3" points="622.59 287.96 622.59 189.36 622.59 189.36"/>
            <rect class="cls-19" x="545.91" y="352.13" width="17.21" height="25.17"/>
            <rect class="cls-19" x="579.94" y="352.13" width="17.21" height="25.17"/>
            <rect class="cls-19" x="613.98" y="352.13" width="17.21" height="25.17"/>
            <rect class="cls-19" x="648.02" y="352.13" width="17.21" height="25.17"/>
            <rect class="cls-19" x="682.06" y="352.13" width="17.21" height="25.17"/>
            <rect class="cls-19" x="545.91" y="394.82" width="17.21" height="25.17"/>
            <rect class="cls-19" x="579.94" y="394.82" width="17.21" height="25.17"/>
            <rect class="cls-19" x="613.98" y="394.82" width="17.21" height="25.17"/>
            <rect class="cls-19" x="648.02" y="394.82" width="17.21" height="25.17"/>
            <rect class="cls-19" x="682.06" y="394.82" width="17.21" height="25.17"/>
            <rect class="cls-19" x="545.91" y="480.22" width="17.21" height="25.17"/>
            <rect class="cls-19" x="579.94" y="480.22" width="17.21" height="25.17"/>
            <rect class="cls-19" x="613.98" y="480.22" width="17.21" height="25.17"/>
            <rect class="cls-19" x="648.02" y="480.22" width="17.21" height="25.17"/>
            <rect class="cls-19" x="682.06" y="480.22" width="17.21" height="25.17"/>
            <rect class="cls-19" x="545.91" y="565.61" width="17.21" height="25.17"/>
            <rect class="cls-19" x="579.94" y="565.61" width="17.21" height="25.17"/>
            <rect class="cls-19" x="613.98" y="565.61" width="17.21" height="25.17"/>
            <rect class="cls-19" x="648.02" y="565.61" width="17.21" height="25.17"/>
            <rect class="cls-19" x="682.06" y="565.61" width="17.21" height="25.17"/>
            <line class="cls-10" x1="545.91" y1="437.52" x2="699.27" y2="437.52"/>
            <line class="cls-10" x1="545.91" y1="462.69" x2="699.27" y2="462.69"/>
            <line class="cls-10" x1="545.91" y1="450.11" x2="699.27" y2="450.11"/>
            <line class="cls-20" x1="581.38" y1="302.98" x2="663.8" y2="302.98"/>
            <line class="cls-20" x1="581.38" y1="315.57" x2="663.8" y2="315.57"/>
            <line class="cls-10" x1="545.91" y1="522.92" x2="699.27" y2="522.92"/>
            <line class="cls-10" x1="545.91" y1="548.08" x2="699.27" y2="548.08"/>
            <line class="cls-10" x1="545.91" y1="535.5" x2="699.27" y2="535.5"/>
        </g>
        <g id="town_hall">
            <g id="back_border">
                <rect class="cls-21" x="770.95" y="530.82" width="204.09" height="89.89"/>
                <polygon class="cls-22" points="964.58 517.45 781.42 517.45 770.95 530.82 975.04 530.82 964.58 517.45"/>
                <line class="cls-3" x1="765.96" y1="530.82" x2="980.04" y2="530.82"/>
                <rect class="cls-17" x="814.49" y="427.43" width="117.03" height="89.89"/>
                <polygon class="cls-22" points="921.05 414.06 824.95 414.06 814.49 427.43 931.51 427.43 921.05 414.06"/>
                <line class="cls-3" x1="809.49" y1="427.43" x2="936.51" y2="427.43"/>
                <rect class="cls-17" x="841.46" y="402.08" width="63.08" height="11.98"/>
                <rect class="cls-2" x="831.13" y="331.33" width="83.73" height="70.75"/>
                <line class="cls-3" x1="825.87" y1="402.08" x2="920.13" y2="402.08"/>
                <line class="cls-3" x1="825.87" y1="331.33" x2="920.13" y2="331.33"/>
                <polygon class="cls-23"
                         points="885.36 281.74 860.64 281.74 845.26 281.74 845.26 331.32 860.64 331.32 885.36 331.32 900.74 331.32 900.74 281.74 885.36 281.74"/>
                <path class="cls-24" d="M900.74,281.74a27.74,27.74,0,0,0-55.48,0Z"/>
                <path class="cls-3"
                      d="M873,254a27.74,27.74,0,0,0-27.74,27.74h0v49.58h55.48V281.74A27.74,27.74,0,0,0,873,254Z"/>
                <line class="cls-3" x1="873" y1="217.5" x2="873" y2="254"/>
            </g>
            <rect class="cls-10" x="841.46" y="402.08" width="63.08" height="11.98"/>
            <rect class="cls-10" x="831.13" y="331.33" width="83.73" height="70.75"/>
            <rect class="cls-10" x="814.49" y="427.43" width="117.03" height="89.89"/>
            <polygon class="cls-10" points="921.05 414.06 824.95 414.06 814.49 427.43 931.51 427.43 921.05 414.06"/>
            <line class="cls-10" x1="809.49" y1="427.43" x2="936.51" y2="427.43"/>
            <rect class="cls-10" x="770.95" y="530.82" width="204.09" height="89.89"/>
            <polygon class="cls-10" points="964.58 517.45 781.42 517.45 770.95 530.82 975.04 530.82 964.58 517.45"/>
            <line class="cls-10" x1="765.96" y1="530.82" x2="980.04" y2="530.82"/>
            <polygon class="cls-10" points="964.58 517.45 781.42 517.45 770.95 530.82 975.04 530.82 964.58 517.45"/>
            <line class="cls-10" x1="765.96" y1="530.82" x2="980.04" y2="530.82"/>
            <line class="cls-10" x1="825.87" y1="402.08" x2="920.13" y2="402.08"/>
            <line class="cls-10" x1="825.87" y1="331.33" x2="920.13" y2="331.33"/>
            <g id="clock">
                <circle id="clock_round" class="cls-25" cx="873" cy="366.7" r="23.38"/>
                <line id="minute" class="cls-10" x1="873" y1="367.53" x2="873" y2="349.38"/>
                <line id="hour" class="cls-10" x1="886.36" y1="367.53" x2="873" y2="367.53"/>
            </g>
            <polygon class="cls-10"
                     points="885.36 281.74 860.64 281.74 845.26 281.74 845.26 331.32 860.64 331.32 885.36 331.32 900.74 331.32 900.74 281.74 885.36 281.74"/>
            <polygon class="cls-10"
                     points="853.99 281.74 848.61 281.74 845.26 281.74 845.26 331.32 848.61 331.32 853.99 331.32 857.34 331.32 857.34 281.74 853.99 281.74"/>
            <polygon class="cls-10"
                     points="897.39 281.74 892.01 281.74 888.66 281.74 888.66 331.32 892.01 331.32 897.39 331.32 900.74 331.32 900.74 281.74 897.39 281.74"/>
            <polygon class="cls-10"
                     points="875.69 281.74 870.31 281.74 866.96 281.74 866.96 331.32 870.31 331.32 875.69 331.32 879.04 331.32 879.04 281.74 875.69 281.74"/>
            <path class="cls-10" d="M900.74,281.74a27.74,27.74,0,0,0-55.48,0Z"/>
            <line class="cls-26" x1="830.97" y1="443.5" x2="830.97" y2="461.2"/>
            <line class="cls-26" x1="844.98" y1="443.5" x2="844.98" y2="461.2"/>
            <line class="cls-26" x1="858.99" y1="443.5" x2="858.99" y2="461.2"/>
            <line class="cls-26" x1="873" y1="443.5" x2="873" y2="461.2"/>
            <line class="cls-26" x1="887.01" y1="443.5" x2="887.01" y2="461.2"/>
            <line class="cls-26" x1="901.02" y1="443.5" x2="901.02" y2="461.2"/>
            <line class="cls-26" x1="915.02" y1="443.5" x2="915.02" y2="461.2"/>
            <path class="cls-27"
                  d="M810.22,547.4h0A20.71,20.71,0,0,0,789.58,568v52.67h41.29V568A20.71,20.71,0,0,0,810.22,547.4Z"/>
            <path class="cls-27"
                  d="M873,547.4h0A20.71,20.71,0,0,0,852.35,568v52.67h41.29V568A20.71,20.71,0,0,0,873,547.4Z"/>
            <path class="cls-27"
                  d="M935.78,547.4h0A20.71,20.71,0,0,0,915.13,568v52.67h41.29V568A20.71,20.71,0,0,0,935.78,547.4Z"/>
            <rect class="cls-28" x="770.95" y="530.82" width="204.09" height="89.89"/>
        </g>
    </g>
    <g id="tree3">
        <path class="cls-29" d="M254.37,530.13v62.22a31.11,31.11,0,1,1,0-62.22Z"/>
        <path class="cls-30" d="M285.48,561.24a31.11,31.11,0,0,1-31.11,31.11V530.13A31.11,31.11,0,0,1,285.48,561.24Z"/>
        <line class="cls-31" x1="254.37" y1="559.05" x2="254.37" y2="620.71"/>
        <polyline class="cls-31" points="260.64 569.99 254.37 576.26 248.09 569.99"/>
        <circle class="cls-3" cx="254.37" cy="561.24" r="31.11"/>
    </g>
    <g id="tree2">
        <path class="cls-29" d="M962.27,530.13v62.22a31.11,31.11,0,1,1,0-62.22Z"/>
        <path class="cls-30" d="M993.38,561.24a31.11,31.11,0,0,1-31.11,31.11V530.13A31.11,31.11,0,0,1,993.38,561.24Z"/>
        <line class="cls-31" x1="962.26" y1="559.05" x2="962.26" y2="620.71"/>
        <polyline class="cls-31" points="968.53 569.99 962.26 576.26 955.99 569.99"/>
        <circle class="cls-3" cx="962.26" cy="561.24" r="31.11"/>
    </g>
    <g id="tree1">
        <path class="cls-29" d="M1046.94,530.13v62.22a31.11,31.11,0,1,1,0-62.22Z"/>
        <path class="cls-30"
              d="M1078.05,561.24a31.11,31.11,0,0,1-31.11,31.11V530.13A31.11,31.11,0,0,1,1078.05,561.24Z"/>
        <line class="cls-31" x1="1046.94" y1="559.05" x2="1046.94" y2="620.71"/>
        <polyline class="cls-31" points="1053.21 569.99 1046.94 576.26 1040.67 569.99"/>
        <circle class="cls-3" cx="1046.94" cy="561.24" r="31.11"/>
    </g>
    <rect id="folding_screen" class="cls-5" x="117.06" y="620.71" width="1162.35" height="359.29"/>
    <line id="horizont" class="cls-32" x1="117.06" y1="620.71" x2="1279.4" y2="620.71"/>
    <g id="train1">
        <path class="cls-33"
              d="M475.14,653.31H250.8c-6.52,0-10.34-1.84-12.05-4.7-4.38-7.29,5-21.21,18-27.9s10.59-25.15,38.13-25.15H475.14v57.75Z"/>
        <polygon class="cls-33"
                 points="727.25 595.56 489.02 595.56 489.02 653.31 727.25 653.31 727.25 595.56 727.25 595.56"/>
        <polygon class="cls-34"
                 points="332.32 604.47 346.98 604.47 346.98 613.26 332.32 613.26 332.32 604.47 332.32 604.47"/>
        <polygon class="cls-34"
                 points="360.36 604.47 375.01 604.47 375.01 613.26 360.36 613.26 360.36 604.47 360.36 604.47"/>
        <polygon class="cls-34"
                 points="388.39 604.47 403.05 604.47 403.05 613.26 388.39 613.26 388.39 604.47 388.39 604.47"/>
        <polygon class="cls-34"
                 points="416.43 604.47 431.08 604.47 431.08 613.26 416.43 613.26 416.43 604.47 416.43 604.47"/>
        <polygon class="cls-34"
                 points="444.47 604.47 459.12 604.47 459.12 613.26 444.47 613.26 444.47 604.47 444.47 604.47"/>
        <path class="cls-35"
              d="M475.14,625.4a3.53,3.53,0,0,1,0,7.06l-178.09-.14a93,93,0,0,0-18.47,1.87,96.71,96.71,0,0,0-13.9,3.95,80.2,80.2,0,0,0-12.26,6c-4.25,2.47-8.27,5.09-11.71,7.42a3.52,3.52,0,0,1-4-5.83c3.63-2.46,7.84-5.22,12.12-7.7a87.17,87.17,0,0,1,13.39-6.5,103,103,0,0,1,14.89-4.21,98.79,98.79,0,0,1,19.88-2l178.09.14Z"/>
        <path class="cls-35" d="M489,632.34a3.54,3.54,0,0,1,0-7.09H727.25a3.54,3.54,0,0,1,0,7.09Z"/>
        <polygon class="cls-33"
                 points="981.99 595.56 743.77 595.56 743.77 653.31 981.99 653.31 981.99 595.56 981.99 595.56"/>
        <path class="cls-35" d="M743.77,632.34a3.54,3.54,0,1,1,0-7.09H982a3.54,3.54,0,0,1,0,7.09Z"/>
        <polygon class="cls-33"
                 points="1235.72 595.56 997.5 595.56 997.5 653.31 1235.72 653.31 1235.72 595.56 1235.72 595.56"/>
        <path class="cls-35" d="M997.5,632.34a3.54,3.54,0,0,1,0-7.09h238.22a3.54,3.54,0,0,1,0,7.09Z"/>
        <path class="cls-34"
              d="M290.38,595.74a6.26,6.26,0,0,1,.62,2.72v12.61a6.32,6.32,0,0,1-6.3,6.3H267.41a6.31,6.31,0,0,1-4.41-1.82c6.4-7.55,9.39-18.29,27.39-19.81Z"/>
        <path class="cls-36" d="M278,653.85a6.45,6.45,0,1,1-6.45,6.45,6.45,6.45,0,0,1,6.45-6.45Z"/>
        <path class="cls-36" d="M300.23,653.85a6.45,6.45,0,1,1-6.45,6.45,6.45,6.45,0,0,1,6.45-6.45Z"/>
        <path class="cls-36" d="M427,653.85a6.45,6.45,0,1,1-6.45,6.45,6.45,6.45,0,0,1,6.45-6.45Z"/>
        <path class="cls-36" d="M449.28,653.85a6.45,6.45,0,1,1-6.45,6.45,6.45,6.45,0,0,1,6.45-6.45Z"/>
        <path class="cls-36" d="M515.62,653.85a6.45,6.45,0,1,1-6.45,6.45,6.45,6.45,0,0,1,6.45-6.45Z"/>
        <path class="cls-36" d="M537.89,653.85a6.45,6.45,0,1,1-6.45,6.45,6.45,6.45,0,0,1,6.45-6.45Z"/>
        <path class="cls-36" d="M687.15,653.85a6.45,6.45,0,1,1-6.45,6.45,6.45,6.45,0,0,1,6.45-6.45Z"/>
        <path class="cls-36" d="M709.43,653.85A6.45,6.45,0,1,1,703,660.3a6.45,6.45,0,0,1,6.45-6.45Z"/>
        <path class="cls-36" d="M764.88,653.85a6.45,6.45,0,1,1-6.45,6.45,6.45,6.45,0,0,1,6.45-6.45Z"/>
        <path class="cls-36" d="M787.16,653.85a6.45,6.45,0,1,1-6.45,6.45,6.45,6.45,0,0,1,6.45-6.45Z"/>
        <path class="cls-36" d="M938.46,653.85A6.45,6.45,0,1,1,932,660.3a6.45,6.45,0,0,1,6.45-6.45Z"/>
        <path class="cls-36" d="M960.74,653.85a6.45,6.45,0,1,1-6.45,6.45,6.45,6.45,0,0,1,6.45-6.45Z"/>
        <path class="cls-36" d="M1019,653.85a6.45,6.45,0,1,1-6.45,6.45,6.45,6.45,0,0,1,6.45-6.45Z"/>
        <path class="cls-36" d="M1041.28,653.85a6.45,6.45,0,1,1-6.45,6.45,6.45,6.45,0,0,1,6.45-6.45Z"/>
        <path class="cls-36" d="M1190.79,653.85a6.45,6.45,0,1,1-6.45,6.45,6.45,6.45,0,0,1,6.45-6.45Z"/>
        <path class="cls-36" d="M1213.06,653.85a6.45,6.45,0,1,1-6.45,6.45,6.45,6.45,0,0,1,6.45-6.45Z"/>
        <path class="cls-37"
              d="M1232.18,599.1H1001v50.67h231.14V599.1ZM997.5,592h238.22a3.54,3.54,0,0,1,3.54,3.54v57.75a3.54,3.54,0,0,1-3.54,3.55H997.5a3.55,3.55,0,0,1-3.54-3.55V595.56A3.54,3.54,0,0,1,997.5,592Z"/>
        <path class="cls-37"
              d="M978.45,599.1H747.31v50.67H978.45V599.1ZM743.77,592H982a3.54,3.54,0,0,1,3.54,3.54v57.75a3.54,3.54,0,0,1-3.54,3.55H743.77a3.55,3.55,0,0,1-3.54-3.55V595.56a3.54,3.54,0,0,1,3.54-3.54Z"/>
        <path class="cls-37"
              d="M723.7,599.1H492.56v50.67H723.7V599.1ZM489,592H727.25a3.54,3.54,0,0,1,3.54,3.54v57.75a3.54,3.54,0,0,1-3.54,3.55H489a3.54,3.54,0,0,1-3.54-3.55V595.56A3.54,3.54,0,0,1,489,592Z"/>
        <path class="cls-37"
              d="M475.14,656.86H250.8a24.48,24.48,0,0,1-8.87-1.44,12.07,12.07,0,0,1-6.21-5c-.13-.22-.24-.42-.34-.6-2.4-4.66-1.2-10.74,2.41-16.58A44.94,44.94,0,0,1,252.57,619c.85-.5,1.69-1,2.53-1.42,3.79-1.94,6.2-5.44,8.7-9,5.54-8,11.43-16.5,31.05-16.5H475.14a3.54,3.54,0,0,1,3.54,3.54v57.75a3.54,3.54,0,0,1-3.54,3.55ZM250.8,649.77H471.6V599.1H294.86c-15.94,0-20.74,6.92-25.24,13.44-3,4.35-5.93,8.56-11.27,11.31-.75.38-1.46.78-2.15,1.19A37.63,37.63,0,0,0,243.79,637c-2.34,3.78-3.3,7.36-2.13,9.63l.12.22a5.19,5.19,0,0,0,2.69,2,17.67,17.67,0,0,0,6.33.94Z"/>
        <line class="cls-32" x1="188.33" y1="688.16" x2="617.32" y2="688.16"/>
        <line class="cls-32" x1="668.33" y1="688.16" x2="765.96" y2="688.16"/>
        <line class="cls-32" x1="814.49" y1="688.16" x2="1191.34" y2="688.16"/>
        <line class="cls-3" x1="127.6" y1="669.16" x2="1251.53" y2="669.16"/>
    </g>
    <path id="lake"
          class="cls-4"
          d="M269.14,700.87H1133.7a17.79,17.79,0,0,1,17.74,17.74h0a17.8,17.8,0,0,1-17.74,17.75H1015.8a17.82,17.82,0,0,0-13.42,17.21h0a17.81,17.81,0,0,0,13.42,17.2h190.3a17.79,17.79,0,0,1,17.75,17.74h0a17.8,17.8,0,0,1-17.75,17.75H937a17.81,17.81,0,0,0-13.42,17.21h0A17.81,17.81,0,0,0,937,840.68h119.8a17.79,17.79,0,0,1,17.74,17.74h0a17.8,17.8,0,0,1-17.74,17.75H311.73A17.8,17.8,0,0,1,294,858.42h0a17.8,17.8,0,0,1,17.75-17.74H416.78a17.8,17.8,0,0,0,17.75-17.75h0a17.82,17.82,0,0,0-11.68-16.67H196.74A17.8,17.8,0,0,1,179,788.52h0a17.79,17.79,0,0,1,17.74-17.74H333A17.8,17.8,0,0,0,350.77,753h0a17.81,17.81,0,0,0-11.68-16.67h-70a17.8,17.8,0,0,1-17.75-17.75h0a17.79,17.79,0,0,1,17.75-17.74Z"/>
    <g id="bench">
        <line class="cls-3" x1="257.35" y1="734.08" x2="540.35" y2="734.08"/>
        <line class="cls-3" x1="257.35" y1="770.88" x2="540.35" y2="770.88"/>
        <line class="cls-3" x1="257.35" y1="807.68" x2="540.35" y2="807.68"/>
        <line class="cls-3" x1="272.95" y1="735.04" x2="272.95" y2="806.7"/>
        <line class="cls-3" x1="524.75" y1="735.04" x2="524.75" y2="806.7"/>
        <rect class="cls-38" x="232.33" y="829.66" width="333.04" height="22.29"/>
        <rect class="cls-39" x="271.53" y="851.95" width="22.29" height="49.44"/>
        <rect class="cls-39" x="503.88" y="851.95" width="22.29" height="49.44"/>
        <polygon class="cls-17"
                 points="181.35 490.26 150.85 490.26 162.79 565.85 181.35 565.85 199.92 565.85 211.86 490.26 181.35 490.26"/>
        <polygon class="cls-40"
                 points="181.35 901.4 157.25 901.4 163.25 751.53 181.35 751.53 199.46 751.53 205.47 901.4 181.35 901.4"/>
        <path class="cls-40" d="M219.23,490.26c-7-11-21.33-18.57-37.88-18.57s-30.88,7.55-37.88,18.57Z"/>
        <line class="cls-3" x1="151.51" y1="565.85" x2="211.2" y2="565.85"/>
        <line class="cls-3" x1="181.35" y1="568.51" x2="181.35" y2="751.53"/>
    </g>
    <g id="sky">
        <g id="bird3">
            <path class="cls-3" d="M744.52,227.09a26.89,26.89,0,0,1,26.81,26.81"/>
            <path class="cls-3" d="M798.13,227.09a26.89,26.89,0,0,0-26.81,26.81"/>
        </g>
        <g id="bird2">
            <path class="cls-3" d="M791.95,252.81a17.77,17.77,0,0,1,17.72,17.72"/>
            <path class="cls-3" d="M827.39,252.81a17.77,17.77,0,0,0-17.72,17.72"/>
        </g>
        <g id="bird1">
            <path class="cls-3" d="M720.26,280a12.9,12.9,0,0,1,12.86,12.86"/>
            <path class="cls-3" d="M746,280a12.9,12.9,0,0,0-12.86,12.86"/>
        </g>
        <path id="cloud3"
              class="cls-40"
              d="M325.66,201.93a35.63,35.63,0,0,0-29.49-15.09c-.45,0-.9,0-1.35,0a49,49,0,0,0-88.35,10.34A24.23,24.23,0,0,0,183,221.44H310.3"/>
        <path id="cloud2"
              class="cls-40"
              d="M409.24,246a28.55,28.55,0,0,0-28.81-27.69l-1.08,0a39.21,39.21,0,0,0-70.69,8.27A19.39,19.39,0,0,0,289.85,246H409.24Z"/>
        <path id="cloud1"
              class="cls-40"
              d="M1222.09,329.21a32,32,0,0,0-40.87-28.53,32,32,0,0,0-42.84-7.23,41.27,41.27,0,0,0-65.67,18.83,20.41,20.41,0,0,0-19.5,16.93Z"/>
    </g>
</svg>