<svg version="1.1" id="Layer_1" xmlns="http://www.w3.org/2000/svg" xmlns:xlink="http://www.w3.org/1999/xlink" x="0px" y="0px"
	 viewBox="0 0 178.5 17.6" style="enable-background:new 0 0 178.5 17.6;" xml:space="preserve">
<path fill="#344f71" d="M1.2,1.3l1.2,1.2l9.4,0c8.5,0,9.4,0,9.8,0.1c1.7,0.4,3,1.3,3.9,2.7c0.4,0.6,0.7,1.2,0.9,1.9
	c0.1,0.5,0.2,0.7,0.2,1.6s0,1.1-0.2,1.6c-0.3,1.1-0.8,2-1.6,2.8C24,14,23,14.6,21.8,14.9L21.2,15l-3.1,0l-3.1,0l1.2,1.2l1.2,1.2l2,0
	c2.2,0,2.5-0.1,3.6-0.4c3-1,5.2-3.5,5.9-6.6c0.2-0.7,0.2-2.7,0-3.4c-0.7-3.1-2.8-5.5-5.7-6.6c-0.3-0.1-0.8-0.2-1.1-0.3L21.5,0
	L10.7,0L0,0L1.2,1.3z M6.3,6.3l1.2,1.2h8.2H24l0-0.1c-0.1-0.4-0.4-0.8-0.8-1.2c-0.6-0.6-1-0.8-1.7-1C21,5,20.7,5,13,5H5L6.3,6.3z
	 M11.3,11.3l1.2,1.2h4.2c4.6,0,4.7,0,5.5-0.4c0.7-0.4,1.6-1.3,1.8-1.9l0-0.1h-7h-7L11.3,11.3z M28.2,0.8c0.4,0.4,0.9,1,1.1,1.2
	l0.3,0.5l1.7,0c1.6,0,1.8,0,2.3,0.2c1.1,0.3,2,0.8,2.8,1.5c0.6,0.5,1,1,1.3,1.7c1.1,2.1,0.9,4.4-0.4,6.4c-0.3,0.5-1.1,1.3-1.6,1.6
	c-0.6,0.4-1.3,0.8-2.1,0.9C33.2,15,33,15,31.4,15.1l-1.7,0l-0.3,0.5c-0.2,0.3-0.7,0.8-1.1,1.2l-0.8,0.8l3,0c2.8,0,3,0,3.6-0.2
	c3.5-0.8,6.1-3.3,6.8-6.8C40.9,10,41,9.7,41,8.7c0-1,0-1.2-0.2-1.8c-0.4-1.8-1.2-3.1-2.4-4.3c-1.2-1.2-2.7-2-4.4-2.4
	C33.4,0.1,33.2,0,30.4,0l-3,0L28.2,0.8z M31,5.3c0.1,0.4,0.3,0.9,0.4,1.6l0.1,0.6l2.4,0c1.3,0,2.4,0,2.4,0S36.2,7.2,36.1,7
	c-0.3-0.6-1-1.3-1.6-1.6C33.8,5.1,33.4,5,32.1,5H31L31,5.3z M31.5,10.1c0,0,0,0.1,0,0.2c0,0.2-0.2,1.3-0.4,1.8L31,12.5l1.3,0
	c1.2,0,1.3,0,1.8-0.2c0.9-0.3,1.7-1,2.1-1.8c0.1-0.2,0.2-0.4,0.2-0.4C36.3,10,31.6,10,31.5,10.1z M57.5,8.8v6.3l2.7,0
	c2.5,0,2.8,0,3.3-0.2c2.2-0.5,3.7-1.6,4.6-3.4c0.4-0.7,0.5-1.4,0.6-2.4c0.2-3.2-1.5-5.6-4.5-6.4c-0.8-0.2-1.5-0.2-4.2-0.2h-2.6V8.8z
	 M63.5,4.8c1.6,0.4,2.5,1.4,2.8,2.8c0.1,0.6,0.1,1.8,0,2.4c-0.3,1-0.9,1.9-1.8,2.3c-1,0.5-1.8,0.7-3.5,0.7h-1.2V8.8V4.6l1.6,0
	C62.8,4.6,63.1,4.6,63.5,4.8z M78.4,2.3c-0.8,0.1-1.3,0.3-2,0.6c-1.7,0.8-2.9,2.4-3.3,4.5c-0.1,0.7-0.1,2.1,0,2.8
	c0.5,2.6,2.3,4.4,5,5c0.6,0.1,2.1,0.2,2.8,0c3.4-0.6,5.5-3.3,5.4-6.9c-0.2-3.8-2.8-6.2-6.7-6.1C79.3,2.2,78.7,2.3,78.4,2.3z
	 M80.8,4.4c1.2,0.3,2.2,1.1,2.7,2.3c0.3,0.7,0.4,1.3,0.4,2.3c0,1-0.1,1.3-0.5,2.1c-0.5,1.1-1.5,1.8-2.6,2.1c-1,0.2-2.3,0.1-3.1-0.3
	c-1.6-0.8-2.4-2.4-2.3-4.4c0-0.8,0.1-1.3,0.5-1.9c0.6-1.3,1.8-2.1,3.3-2.3C79.5,4.2,80.3,4.3,80.8,4.4z M96.3,2.3
	c-2.8,0.3-4.9,2.1-5.5,4.7c-0.8,3.4,0.6,6.6,3.6,7.9c1.9,0.8,4.1,0.7,6-0.2c0.8-0.4,1.5-0.9,2.1-1.6c2.1-2.6,1.9-6.8-0.4-9
	c-0.9-0.9-2.3-1.5-3.7-1.7C97.7,2.2,96.7,2.2,96.3,2.3z M98.3,4.4c1.4,0.3,2.5,1.4,3,2.9c0.1,0.4,0.1,0.6,0.1,1.4c0,0.8,0,1-0.1,1.4
	c-0.4,1.5-1.5,2.6-3,3c-0.6,0.2-1.6,0.2-2.3,0c-1.4-0.4-2.6-1.5-3-3.1c-0.1-0.5-0.2-1.7-0.1-2.3C93.4,5.3,95.7,3.8,98.3,4.4z
	 M108.7,2.6c0,0,0,2.9,0,6.2l0,6.2l1.1,0l1.1,0v-2.7V9.7h0.8h0.8l1.5,2.6l1.4,2.6l1.3,0c0.8,0,1.3,0,1.3,0c0,0-0.7-1.3-1.6-2.8
	l-1.6-2.7l0.4-0.1c1.2-0.3,2.1-1.1,2.4-2.4c0.1-0.5,0.1-1.6-0.1-2.1c-0.4-1.2-1.3-2-3-2.3C113.8,2.5,108.7,2.5,108.7,2.6z
	 M114.2,4.6c0.4,0.1,0.8,0.4,0.9,0.7c0.2,0.3,0.2,1,0.1,1.4c-0.1,0.4-0.5,0.8-1,0.9c-0.4,0.1-1.3,0.2-2.4,0.2h-1V6.2V4.5l1.5,0
	C113.6,4.5,114,4.5,114.2,4.6z M123.7,8.8V15h2.3c1.3,0,2.6,0,2.9-0.1c1.7-0.2,3.1-0.8,4.1-1.8c0.6-0.5,0.9-1,1.3-1.7
	c0.8-1.5,0.8-3.9,0-5.6c-0.9-1.9-2.6-3.1-5-3.3c-0.3,0-1.7-0.1-3.1-0.1h-2.5V8.8z M129.6,4.8c1.2,0.3,2,0.9,2.4,1.8
	c0.3,0.6,0.4,1.1,0.5,1.9c0.1,1.4-0.2,2.3-1.1,3.2c-0.6,0.6-1.2,0.9-2.1,1.1c-0.6,0.1-0.7,0.2-2.1,0.2l-1.5,0V8.8V4.6l1.7,0
	C128.9,4.6,129.2,4.6,129.6,4.8z M143.9,2.6c-0.1,0.1-5.3,12.2-5.3,12.3l0,0.1l1.2,0l1.2,0l0.6-1.4l0.6-1.4h2.7h2.7l0.6,1.4
	c0.3,0.8,0.6,1.4,0.6,1.4c0,0.1,0.4,0.1,1.3,0.1c0.7,0,1.2,0,1.2,0c0,0-5.2-12.1-5.3-12.3l-0.1-0.2h-0.9
	C144.3,2.5,143.9,2.6,143.9,2.6z M145.8,7.8c0.5,1.3,0.9,2.4,0.9,2.4s-0.9,0-1.9,0c-1.2,0-1.9,0-1.9-0.1c0,0,0.4-1.2,0.9-2.5
	c0.7-1.7,1-2.4,1-2.4C144.8,5.4,145.3,6.5,145.8,7.8z M158.6,2.3c-0.6,0.1-1.1,0.2-1.7,0.5c-0.4,0.2-0.7,0.4-1,0.7
	c-0.7,0.7-1,1.4-1,2.5c0,1.1,0.3,1.7,1,2.4c0.5,0.5,1.1,0.8,2.4,1.2c1.5,0.5,2.2,0.9,2.4,1.3c0.1,0.3,0.2,0.9,0.1,1.2
	c-0.1,0.3-0.5,0.7-0.8,0.9c-0.4,0.2-0.7,0.3-1.3,0.3c-0.9,0-1.6-0.3-2.1-0.9l-0.3-0.3l-0.8,0.8l-0.8,0.8l0.3,0.3
	c0.6,0.6,1.3,1,2.4,1.3c0.8,0.2,2.1,0.2,2.9,0c1.6-0.4,2.6-1.3,2.9-2.7c0.1-0.3,0.1-0.6,0.1-1.1c0-1.1-0.3-1.7-1-2.4
	c-0.5-0.5-1.1-0.8-2.4-1.2c-1.6-0.5-2.1-0.8-2.3-1.3c-0.3-0.7,0-1.6,0.8-1.9c1-0.4,2.3-0.2,3,0.4l0.3,0.3l0.8-0.8
	c0.4-0.4,0.8-0.8,0.8-0.9c0-0.1-0.5-0.5-0.9-0.7C161.3,2.3,159.8,2.1,158.6,2.3z M168.3,2.6c0,0,0,2.9,0,6.2l0,6.2l1.1,0l1.1,0v-2.8
	V9.5h2.9h2.9l0,2.7l0,2.7l1.1,0l1.1,0V8.8V2.5l-1.1,0l-1.1,0l0,2.5l0,2.5h-2.9h-2.9V5V2.5h-1.1C168.6,2.5,168.3,2.5,168.3,2.6z"/>
</svg>
