<svg xmlns="http://www.w3.org/2000/svg" viewBox="0 0 396.6 58.8"><path d="M313.6 50.6c-.4-.2-3-.6-4.5-3.4l-9.3-17.1 5.7-5.5s1.5-1.4 2.6-2.1c1.1-.7 2.5-1.2 3-1.3.4-.1.9-.5.7-2.7-.1-1.9-.5-2.1-1-2.1-.2 0-1.1-.1-1.1-.1s-3.9.1-7 .1-7.5-.1-7.5-.1-.9 0-1.1.1c-.5 0-.8.2-1 2.1-.1 1.8 0 2.3.4 2.5.4.2.9.4 1.5.8.8.6 1.1 1.2.3 2s-3.9 4-3.9 4l-3.8 3.1V6c-.1-2-.7-3-2.9-3h-11.9c-1 0-1.4.2-1.6 1.2-.2.8-.1 1.3-.2 2.3-.1 1 .5 1.1 1.3 1.5.3.2 1 .5 1.3.7 1.4.8 1.8 1.5 1.8 4.7V45c0 3.5-1.1 4.7-2.1 5.2-.3.2-.6.4-1 .6-.9.4-1.1.8-1 1.8.1.4 0 1.7.2 2.5.3 1 .5 1.2 1.8 1.2h16.8c1.2 0 1.5-.2 1.8-1.2.2-.8.2-2.1.3-2.5.1-1 0-1.5-1-1.9-.4-.2-.7-.4-1-.5-2-.9-2.4-2.9-2.4-6.1v-2.3l3.4-2.8 8.9 16.2c.5.9.6 1.1 1.8 1.1h10.7c1.2 0 1.5-.2 1.8-1.2.2-.8.2-2.1.3-2.5 0-1.1-.2-1.6-1.1-2zM335.4 34l-3.3 1.1c-3.2 1.1-4.8 1.3-5.5-.8-.9-2.5 0-10.4 4.1-11.6 4.3-1.3 7.1.8 8.4 5.3.5 1.7.4 3.4-.2 4.1-.9.9-2.3 1.4-3.5 1.9zm4.4 4.3c4.4-1.6 8.3-3.7 9.5-4.5 2.2-1.5 2.5-3.5 1.5-5.7-3.1-6.9-10.1-14.2-21.6-12-9.2 1.8-15.8 10-15.8 19.5 0 11.8 7.1 18.6 16.1 20.8 8.3 2 18.4-2.1 22.5-9.1.6-1.6-1-4.6-4.2-4.3-2 2.2-5.4 4.8-8.1 5.7-2.6.8-10 1.5-12.1-4.6-.5-1.4-.1-1.8 1.1-2.1.6-.1 6.3-1.9 11.1-3.7zm30.3-7.2c0-3.9 2.2-6.1 4.8-6.4 1.7-.2 3.9 1 3.9 3.9v20c0 5.7 4.9 7.9 8.7 7.9 4 0 7.5-1.9 9-5.1.4-1-.1-1.8-.6-2.3-.6-.6-1.1-1.2-2-.7-1.1.5-2.9 2.5-2.9-.6s-.1-12.8-.1-20.7c0-6.7-3.1-9.5-6.7-10.6-4.1-1.3-9.2.8-11.7 2-1.3.6-2 1-2 1s-.4-.6-.5-.9c-.4-.9-.5-1.5-1.7-1.5h-12.5c-1 0-1.2.2-1.4 1.1-.2.8-.1 1.5-.2 2.5s.5 1 1.3 1.4c.3.2.6.4.8.6.8.5 1.4 2 1.4 4.6v17.4c0 3.5-1.3 4.7-2.3 5.2-.3.2-.6.4-1 .6-.9.4-1.1.8-1 1.8.1.4 0 1.7.2 2.5.3 1 .5 1.2 1.8 1.2h16.9c1.2 0 1.5-.2 1.8-1.2.2-.8.2-2.1.3-2.5.1-1 0-1.5-1-1.9-.4-.2-.7-.4-1.1-.5-1-.5-2.2-1.7-2.2-5.2V31.1zm-166.1 0c0-3.9 2.1-6.1 4.8-6.4 1.7-.2 3.9 1 3.9 3.9v20c0 5.7 4.9 7.9 8.6 7.9 4 0 7.5-1.9 9-5.1.4-1-.1-1.8-.6-2.3-.6-.6-1.1-1.2-2-.7-1.1.5-2.9 2.5-2.9-.6s-.1-12.8-.1-20.7c0-6.7-3.1-9.5-6.6-10.6-4.2-1.3-9.2.8-11.8 2-1.3.6-2 1-2 1s-.3-.6-.5-.9c-.4-.9-.5-1.5-1.7-1.5h-12.5c-1 0-1.2.2-1.4 1.1-.2.8-.1 1.5-.2 2.5s.5 1 1.3 1.4l.9.6c.8.5 1.4 2 1.4 4.6v17.4c0 3.5-1.3 4.7-2.3 5.2-.3.2-.6.4-1 .6-1 .4-1.1.8-1 1.8.1.4 0 1.7.2 2.5.3 1 .5 1.2 1.8 1.2h16.9c1.2 0 1.5-.2 1.8-1.2.2-.8.2-2.1.3-2.5.2-1 0-1.5-1-1.9-.4-.2-.7-.4-1-.5-1-.5-2.2-1.7-2.2-5.2V31.1h-.1zm-31.1-15.8c3.8 0 6.9-3 6.9-6.6 0-3.7-3.1-6.6-6.9-6.6-3.8 0-6.9 3-6.9 6.6.1 3.6 3.1 6.6 6.9 6.6zm7.3 29.6V19c0-.9-.5-1.4-1.4-1.4h-13c-1 0-1.2.2-1.4 1.1-.2.8-.1 1.5-.2 2.5s.5 1.1 1.3 1.5l.9.6c.8.5 1.3 2 1.3 4.6v17c0 3.5-1.1 4.7-2.2 5.2-.3.2-.6.4-1 .6-1 .4-1.1.8-1 1.8.1.4 0 1.7.2 2.5.3 1 .5 1.2 1.7 1.2h17c1.2 0 1.5-.2 1.8-1.2.2-.8.2-2.1.3-2.5.1-1 0-1.5-1-1.9-.4-.2-.7-.4-1-.5-1-.5-2.3-1.7-2.3-5.2zm-62-.9V14.8c0-4.1.4-5.4 1.8-6 .8-.3 2.1-.9 2.5-1.1.4-.2.6-.7.5-2.1-.2-1.4-.3-2.2-.6-2.3-.2-.1-.6-.1-1.3-.1h-18s-1.3 0-1.5.1c-.3.1-.5.6-.7 2.2-.1 1.8 0 2.1.4 2.3.4.2 1.3.8 2 1.1 1.1.6 1.5 1.9 1.5 6l-.1 7.2c0 .6-.5 1.1-1.1 1.1H93.4c-.6 0-1.1-.5-1.1-1.1l-.1-7.2c0-4.1.5-5.4 1.6-6 .6-.3 1.6-.9 2-1.1.8-.4.3-3.9-.1-4.3-.3-.4-1.5-.2-1.5-.2H76s-1.1.1-1.3.2c-.6.3-1.2 4.1-.4 4.4.4.2 1.7.8 2.5 1.1 1.4.6 2 1.9 2 6v29c0 4.6-1.1 5.3-2.4 6-1 .5-1.8.6-2.3 1.3-.5.7-.1 4.5.6 4.8.3.1 1.6.1 1.6.1h18.6s1.2 0 1.6-.1c.7-.2 1.1-4.1.6-4.8-.5-.7-1.3-.8-2.3-1.3-1.4-.7-2.4-1.3-2.4-6l.1-11.6c0-.6.5-1.1 1.1-1.1h10.2c.6 0 1.1.5 1.1 1.1L105 44c0 4.6-1.1 5.2-2.4 6-.5.3-2.3.8-2.6 1.3-.4.5.1 4.5.8 4.8.3.1 1.1.1 1.1.1h19.4s1.1-.1 1.2-.1c.7-.3 1.1-4.1.6-4.8-.5-.7-1.3-.8-2.3-1.3-1.6-.8-2.6-1.4-2.6-6zm135-10l-3.3 1.1c-3.2 1.1-4.8 1.3-5.5-.8-.9-2.5 0-10.4 4.1-11.6 4.3-1.3 7.1.8 8.4 5.3.5 1.7.4 3.4-.2 4.1-.9.9-2.3 1.4-3.5 1.9zm4.4 4.3c4.4-1.6 8.3-3.7 9.5-4.5 2.2-1.5 2.5-3.5 1.5-5.7-3.1-6.9-10.1-14.2-21.6-12-9.2 1.8-15.8 10-15.8 19.5 0 11.8 7.1 18.6 16.1 20.8 8.3 2 18.4-2.1 22.4-9.1.6-1.6-1-4.6-4.2-4.3-2 2.2-5.4 4.8-8.1 5.7-2.6.8-10 1.5-12.1-4.6-.5-1.4-.1-1.8 1.1-2.1.7-.1 6.4-1.9 11.2-3.7zM145.3 34l-3.3 1.1c-3.2 1.1-4.8 1.3-5.6-.8-.9-2.5 0-10.4 4.1-11.6 4.3-1.3 7.1.8 8.4 5.3.5 1.7.4 3.4-.2 4.1-.7.9-2.1 1.4-3.4 1.9zm4.5 4.3c4.4-1.6 8.3-3.7 9.5-4.5 2.2-1.5 2.5-3.5 1.6-5.7-3.1-6.9-10.1-14.2-21.6-12-9.2 1.8-15.8 10-15.8 19.5 0 11.8 7.1 18.6 16.1 20.8 8.3 2 18.4-2.1 22.4-9.1.6-1.6-1-4.6-4.2-4.3-2 2.2-5.4 4.8-8.1 5.7-2.6.8-10 1.5-12.1-4.6-.5-1.4-.1-1.8 1.1-2.1.5-.1 6.3-1.9 11.1-3.7zm241.9-32h-1.4V4.6h1.2c.5 0 1.1.2 1.1.8 0 .5-.4.9-.9.9zm-3.1 4.3h1.7V7.7h.7c.9 0 1.3.2 1.5 1 .2.5.3 1.1.6 1.8h1.7c-.2-.5-.5-1-.6-1.8-.1-.8-.4-1.3-1-1.6.5-.2 1.1-.9 1.1-1.9 0-1.6-1.6-2-2.2-2h-3.5v7.4z" fill="#344f71"/><path d="M391.4 12.7c-3 0-5.4-2.4-5.4-5.4 0-3 2.4-5.4 5.4-5.4 3 0 5.4 2.4 5.4 5.4 0 2.9-2.4 5.4-5.4 5.4zm-6.8-5.4c0 3.8 3.1 6.8 6.8 6.8 3.8 0 6.8-3 6.8-6.8S395.1.5 391.4.5c-3.7 0-6.8 3-6.8 6.8zm-323.1 15c-.3-1-1.2-1.6-2.2-1.6H39.2L33 1.6C32.7.6 31.8 0 30.8 0c-1 0-1.9.7-2.2 1.6l-6.2 19.1h-20c-1 0-1.9.6-2.2 1.6-.3 1 0 2 .8 2.6l16.2 11.8L11 55.8c-.3 1 0 2 .9 2.6.8.6 1.9.6 2.7 0l16.2-11.8L47 58.4c.8.6 1.9.6 2.8 0 .8-.6 1.2-1.7.9-2.6l-6.2-19.1 16.2-11.8c.7-.6 1.1-1.7.8-2.6z" fill="#344f71"/><path d="M30.8 2.3L24.1 23H2.3l17.6 12.8-6.7 20.7 17.6-12.8 17.6 12.8-6.7-20.7L59.3 23H37.5L30.8 2.3z" fill="#344f71"/></svg>