<svg version="1.1"
	 id="svg2" xmlns:cc="http://creativecommons.org/ns#" xmlns:dc="http://purl.org/dc/elements/1.1/" xmlns:rdf="http://www.w3.org/1999/02/22-rdf-syntax-ns#" xmlns:svg="http://www.w3.org/2000/svg"
	 xmlns="http://www.w3.org/2000/svg" xmlns:xlink="http://www.w3.org/1999/xlink" x="0px" y="0px" viewBox="0 0 315.2 51.3"
	 style="enable-background:new 0 0 315.2 51.3;" xml:space="preserve">
<g id="layer1" transform="translate(-205.2332,-320.1596)">
	<g id="g4360" transform="matrix(3.543307,0,0,3.543307,-3.5917343,-49.604326)">
		<g id="Camada_x0020_1">
			<polygon id="polygon2993" fill="#344f71" points="62.2,112.7 62.2,118.7 58.9,118.7 58.9,104.4 62.2,104.4 62.2,110.2 69.5,110.2
				69.5,104.4 72.7,104.4 72.7,118.7 69.5,118.7 69.5,112.7 			"/>
			<path id="path2995" fill="#344f71" d="M78.6,112.9c0,2.5,0.8,3.6,3.5,3.6c2.7,0,3.5-1.1,3.5-3.6v-8.6h3.3v8.7c0,1.8-0.2,3.1-0.9,3.8
				c-1.3,1.4-3.1,2-5.8,2c-2.7,0-4.6-0.6-5.8-2c-0.7-0.8-0.9-2-0.9-3.8v-8.7h3.2L78.6,112.9L78.6,112.9z"/>
			<path id="path2997" fill="#344f71" d="M99.5,104.4l6.6,14.3h-3.6l-1.4-3.4h-6.7l-1.4,3.4h-3.4l6.6-14.3H99.5L99.5,104.4z
				 M95.4,112.7h4.6l-2.4-5.5L95.4,112.7z"/>
			<polygon id="polygon2999" fill="#344f71" points="123.4,118.7 119.4,118.7 116.1,108 113.2,118.7 109.3,118.7 104.1,104.4
				107.6,104.4 111.2,115.4 114.2,104.4 118,104.4 121.5,115.4 124.9,104.4 128.2,104.4 			"/>
			<path id="path3001" fill="#344f71" d="M132.6,110.2h9v2.5h-9c0,2.6,1.1,3.5,3.7,3.5h5.4v2.5h-5.5c-1.9,0-3.3-0.1-4.8-1.3
				c-1.6-1.2-2.4-3-2.4-5.6c0-5.1,2.3-7.4,7.3-7.4h5.4v2.5h-5.4C133.9,106.9,132.7,107.9,132.6,110.2L132.6,110.2z"/>
			<polygon id="polygon3003" fill="#344f71" points="144.5,104.4 144.5,118.7 147.9,118.7 147.9,104.4 			"/>
		</g>
	</g>
</g>
</svg>
