<svg id="svg2" xmlns="http://www.w3.org/2000/svg" viewBox="-756 174 952 240"><style>.st0{fill:#344f71;} .st1{fill:#CAD6E8;} .st2{fill:#A5BBDB;} .st3{fill:url(#path2991_1_);} .st4{fill:#344f71;}</style><path id="path2995-1-0" class="st0" d="M-516 294c0 66.3-53.7 120-120 120s-120-53.7-120-120 53.7-120 120-120 120 53.7 120 120z"/><path id="path2993" class="st1" d="M-658 349c-3.9 0-3.2-1.5-4.6-5.2l-11.4-37.6 70.8-44.2 8.3 2.2-6.9 18.8-56.2 66z"/><path id="path2989" class="st2" d="M-658 349c3 0 4.3-1.4 6-3 2.6-2.5 36-35 36-35l-20.5-5-19 12-2.5 30v1z"/><linearGradient id="path2991_1_" gradientUnits="userSpaceOnUse" x1="-627.009" y1="292.245" x2="-602.009" y2="252.245" gradientTransform="matrix(1 0 0 -1 0 590)"><stop offset="0" stop-color="#EFF7FC"/><stop offset="1" stop-color="#FFF"/></linearGradient><path id="path2991" class="st3" d="M-656 318.4l48.4 35.7c5.5 3 9.5 1.5 10.9-5.1l19.7-92.8c2-8.1-3.1-11.7-8.4-9.3L-701 291.5c-7.9 3.2-7.8 7.6-1.4 9.5l29.7 9.3L-604 267c3.2-2 6.2-.9 3.8 1.3l-55.8 50.1z"/><path class="st4" d="M-460.7 224.3h89.7c3.1 4.8 2.2 9.2 1.1 14.3-10.9 3.4-22.5-.2-35.2 2.6v98.3c-6.8 2-12 1.4-19 .7v-98.7c-13.3-2.5-24.9-1.3-36.6-1.1v-16.1zm196.4-9.1c2.2 25 .6 50 1 75.1.3 16.3 0 32.5 0 48.6-6.5 3-12.1 2-19.3 1.3v-125h18.3zM87.6 339.5c-6.7 1.9-11.9 1.6-18.2.4v-84.5c5.1-2.3 10-1.4 15.1-.9 1.1 2.3 2.2 4.6 3.6 7.5 17.1-12.6 33.3-15 48.3 3.5 3-2.7 5.8-5.7 9-8 16-11.4 37.2-4 43.1 14.8 2.5 7.8 1.8 15.8 1.8 23.8.1 14.4 0 28.8 0 43.4-6.4 2.1-11.9 1.6-17.9.7-2.8-11.5-.9-22.9-1.4-34.1-.3-7.6.2-15.2-.6-22.8-1-10.3-6.4-15.2-15.2-14.9-8.8.3-15.9 6.7-16.2 15.9-.5 14.1-.2 28.1-.2 42.2v12.2c-6.3 3.5-11.9 2.1-17.8 1.8-3-8.2-1.1-16.6-1.4-24.8-.4-11 .3-22.1-.6-33.1-.8-9.7-7.1-14.6-16-14.2-9.7.5-15.2 6-15.3 15.9-.2 18.2-.1 36.4-.1 55.2zm-196.1-77.2c1.2-3 2.1-5.1 3-7.3 4.4-1.6 8.9-1.2 13.2-.4 2.4 2.2 2.1 5 2.1 7.6 0 27 .2 54 0 81-.1 15.9-8.6 27-23.9 30.7-13.9 3.4-27.8 2.8-40.8-4.3-1.6-5 .1-9.1 1.9-14 13.1 1.5 26.9 8.7 39-1.8 5.2-4.5 5.5-11.1 3.9-17.8-4.7 0-7.3 3.4-10.8 4.6-16.4 5.9-33.6-1.4-40.5-17.9-5.2-12.3-4.8-25.1-3-38.1 3.2-24.8 27.4-44.9 55.9-22.3zm-.9 35.9c0-4.6-.1-9.1 0-13.7.3-8.7-4.5-13.4-12.3-15.4-8.2-2.1-15.5.1-19.5 7.8-6.6 12.8-6.7 26.4-1.6 39.7 3.1 8 11.2 11.4 19.7 9.7 8.9-1.7 13.4-7.1 13.6-16.7.2-3.8.1-7.6.1-11.4zm92.2-20.4c-.8-4.1.1-6.9 1.6-9.6 6.7-12.4 24.9-18.7 42.3-14.7 15.6 3.6 23.3 12.6 23.9 28.8.8 18.9-1.2 37.9 1.7 57.1-5.5 2.6-11.1 1.1-16.1 1.2-4.6-1.5-2.9-6.4-5.7-8.4-1.2-.8-2.2-.1-3 .7-4.8 4.6-10.3 7.7-16.8 9.1-14.9 3.2-28.9-4.7-32.2-18.2-3.6-14.7 3.5-26.7 18.6-31.7 7-2.3 14.2-2.1 21.4-2.6 3.7-.2 7.6.5 11.4-1.7 1.7-8 1.1-15.2-7.6-19-8.7-3.8-16-.7-22.8 9.8-2.7.1-5.7.4-8.7.4-2.7.2-5.5.6-8-1.2zm46.5 25.6c-10.9-2-18.2-1.9-23.1.5-6 2.9-9.7 7.4-8.3 14.3 1.5 7.4 7.4 8.9 13.9 8.5 13.8-.9 20.2-9.5 17.5-23.3zm-327-.9h-49.7c-3 23 13.8 29.7 43.2 18.5 3.8 2.5 4.5 6.6 6 10.2-20.7 20.5-58.7 12.8-68.3-13.8-4.8-13.3-4.6-27 .2-40.3 6.4-17.8 23.3-27.5 41.6-24.4 18 3 28 15.2 28.8 35.4.2 4.2.7 8.4-1.8 14.4zm-18.2-14.8c-.2-13.6-5-19.6-14.8-19.7-10.1-.1-16.4 7.3-16.5 19.7h31.3zm141.2 14.6h-51.6c-2.7 9.1.3 15.6 6.3 20 12.3 9 24.6 3.8 36.7-1.5 4.2 2.3 4.7 6.6 6.4 10.1-19.9 21.3-59.1 13-68.6-14.2-4-11.4-3.9-23.2-.9-34.9 5.3-20.2 22.2-32 41.5-29.4 19.4 2.6 29.9 15.7 30.3 37.7-.1 3.4-.1 6.8-.1 12.2zm-19.9-14.8c-.8-13.5-5-18.8-14.3-19.3-10-.5-16.2 6.1-17.8 19.5 10.5.8 20.9 1 32.1-.2zM-28 270.7c-4.1.3-6.7.3-9.3.6-10.7 1.5-14.4 5.5-14.5 16.5-.1 17 0 34 0 51.2-6 3-11.5 1.8-18.2 1.3v-84.9c4.7-2.3 9.6-.9 14.7-1.4 1.4 2.9 2.7 5.5 4.3 8.5 6.8-5.9 13.2-12.2 23.4-9.5 2.3 6.1.4 11.4-.4 17.7z" id="S30mOv.tif"/></svg>