<svg xmlns="http://www.w3.org/2000/svg" viewBox="0 0 80 80"><title>art</title><g id="icon-2" data-name="icon"><circle cx="40" cy="40" r="31" style="fill:none;stroke:#70727f;stroke-linejoin:round;stroke-width:2px"/><circle cx="40" cy="19" r="4" style="fill:none;stroke:#70727f;stroke-linejoin:round;stroke-width:2px"/><polyline points="47 15 67 15 67 71 13 71 13 15 33 15" style="fill:none;stroke:#70727f;stroke-linejoin:round;stroke-width:2px"/><line x1="40" y1="50" x2="40" y2="71" style="fill:none;stroke:#70727f;stroke-linejoin:round;stroke-width:2px"/><polyline points="24 66 35 52 35 71" style="fill:none;stroke:#70727f;stroke-linejoin:round;stroke-width:2px"/><polyline points="13 29 30 29 18 19" style="fill:none;stroke:#70727f;stroke-linejoin:round;stroke-width:2px"/><path d="M20,63,34,45V35a2,2,0,0,0-2-2H13" style="fill:none;stroke:#70727f;stroke-linejoin:round;stroke-width:2px"/><polyline points="60 17 44 27 36 27 21 16" style="fill:none;stroke:#70727f;stroke-linejoin:round;stroke-width:2px"/><polyline points="67 29 50 29 63 20" style="fill:none;stroke:#70727f;stroke-linejoin:round;stroke-width:2px"/><path d="M60,63,46,45V35a2,2,0,0,1,2-2H67" style="fill:none;stroke:#70727f;stroke-linejoin:round;stroke-width:2px"/><polyline points="56 66 45 52 45 71" style="fill:none;stroke:#70727f;stroke-linejoin:round;stroke-width:2px"/></g></svg>