<svg xmlns="http://www.w3.org/2000/svg" viewBox="0 0 80 80"><title>art</title><g id="icon-4" data-name="icon"><polyline points="50 22.5 62 22.5 62 19.5 73 26.5 62 33.5 62 30.5 42 30.5" style="fill:none;stroke:#70727f;stroke-linejoin:round;stroke-width:2px"/><line x1="21" y1="47.5" x2="21" y2="69.5" style="fill:none;stroke:#70727f;stroke-miterlimit:10;stroke-width:2px"/><line x1="21" y1="25.5" x2="21" y2="27.5" style="fill:none;stroke:#70727f;stroke-miterlimit:10;stroke-width:2px"/><line x1="15" y1="44.5" x2="24" y2="44.5" style="fill:none;stroke:#70727f;stroke-miterlimit:10;stroke-width:2px"/><line x1="15" y1="46.5" x2="15" y2="69.5" style="fill:none;stroke:#70727f;stroke-miterlimit:10;stroke-width:2px"/><path d="M48,22.5H15a4,4,0,0,0-4,4v20h4v-17" style="fill:none;stroke:#70727f;stroke-miterlimit:10;stroke-width:2px"/><path d="M27,69.5v-39a4,4,0,0,1,4-4H59" style="fill:none;stroke:#70727f;stroke-miterlimit:10;stroke-width:2px"/><circle cx="21" cy="14.5" r="4" style="fill:none;stroke:#70727f;stroke-miterlimit:10;stroke-width:2px"/><line x1="62" y1="30.5" x2="62" y2="25.5" style="fill:none;stroke:#70727f;stroke-linejoin:round;stroke-width:2px"/><polyline points="30 39.5 52 39.5 52 36.5 63 43.5 52 50.5 52 47.5 30 47.5" style="fill:none;stroke:#70727f;stroke-linejoin:round;stroke-width:2px"/><line x1="52" y1="47.5" x2="52" y2="42.5" style="fill:none;stroke:#70727f;stroke-linejoin:round;stroke-width:2px"/><polyline points="30 56.5 42 56.5 42 53.5 53 60.5 42 67.5 42 64.5 30 64.5" style="fill:none;stroke:#70727f;stroke-linejoin:round;stroke-width:2px"/><line x1="42" y1="64.5" x2="42" y2="59.5" style="fill:none;stroke:#70727f;stroke-linejoin:round;stroke-width:2px"/><line x1="30" y1="30.5" x2="32" y2="30.5" style="fill:none;stroke:#70727f;stroke-linejoin:round;stroke-width:2px"/><line x1="34" y1="30.5" x2="36" y2="30.5" style="fill:none;stroke:#70727f;stroke-linejoin:round;stroke-width:2px"/><line x1="38" y1="30.5" x2="40" y2="30.5" style="fill:none;stroke:#70727f;stroke-linejoin:round;stroke-width:2px"/></g></svg>