<svg xmlns="http://www.w3.org/2000/svg" viewBox="0 0 80 80"><title>art</title><g id="icon-3" data-name="icon"><line x1="39" y1="13" x2="41" y2="13" style="fill:none;stroke:#70727f;stroke-linejoin:round;stroke-width:2px"/><line x1="39" y1="9" x2="41" y2="9" style="fill:none;stroke:#70727f;stroke-linejoin:round;stroke-width:2px"/><line x1="39" y1="71" x2="41" y2="71" style="fill:none;stroke:#70727f;stroke-linejoin:round;stroke-width:2px"/><line x1="39" y1="67" x2="41" y2="67" style="fill:none;stroke:#70727f;stroke-linejoin:round;stroke-width:2px"/><path d="M63,37h3a1,1,0,0,1,1,1v4a1,1,0,0,1-1,1H63" style="fill:none;stroke:#70727f;stroke-linejoin:round;stroke-width:2px"/><circle cx="40" cy="40" r="9" style="fill:none;stroke:#70727f;stroke-linejoin:round;stroke-width:2px"/><circle cx="40" cy="40" r="23" style="fill:none;stroke:#70727f;stroke-linejoin:round;stroke-width:2px"/><line x1="38" y1="38" x2="30" y2="30" style="fill:none;stroke:#70727f;stroke-linejoin:round;stroke-width:2px"/><line x1="42" y1="38" x2="53" y2="27" style="fill:none;stroke:#70727f;stroke-linejoin:round;stroke-width:2px"/><circle cx="40" cy="40" r="3" style="fill:none;stroke:#70727f;stroke-linejoin:round;stroke-width:2px"/><line x1="23" y1="55" x2="23" y2="72" style="fill:none;stroke:#70727f;stroke-linejoin:round;stroke-width:2px"/><line x1="29" y1="60" x2="29" y2="72" style="fill:none;stroke:#70727f;stroke-linejoin:round;stroke-width:2px"/><line x1="51" y1="60" x2="51" y2="72" style="fill:none;stroke:#70727f;stroke-linejoin:round;stroke-width:2px"/><line x1="57" y1="55" x2="57" y2="72" style="fill:none;stroke:#70727f;stroke-linejoin:round;stroke-width:2px"/><line x1="23" y1="25" x2="23" y2="8" style="fill:none;stroke:#70727f;stroke-linejoin:round;stroke-width:2px"/><line x1="29" y1="20" x2="29" y2="8" style="fill:none;stroke:#70727f;stroke-linejoin:round;stroke-width:2px"/><line x1="51" y1="20" x2="51" y2="8" style="fill:none;stroke:#70727f;stroke-linejoin:round;stroke-width:2px"/><line x1="57" y1="25" x2="57" y2="8" style="fill:none;stroke:#70727f;stroke-linejoin:round;stroke-width:2px"/><line x1="40" y1="20" x2="40" y2="22" style="fill:none;stroke:#70727f;stroke-linejoin:round;stroke-width:2px"/><line x1="20" y1="40" x2="22" y2="40" style="fill:none;stroke:#70727f;stroke-linejoin:round;stroke-width:2px"/><line x1="40" y1="60" x2="40" y2="58" style="fill:none;stroke:#70727f;stroke-linejoin:round;stroke-width:2px"/><line x1="60" y1="40" x2="58" y2="40" style="fill:none;stroke:#70727f;stroke-linejoin:round;stroke-width:2px"/></g></svg>