<svg xmlns="http://www.w3.org/2000/svg" viewBox="0 0 80 80"><title>art</title><g id="icon"><path d="M35,14c0,3.5,2,7,5,7s5-3.5,5-7-1-5-5-5S35,10.5,35,14Z" style="fill:none;stroke:#70727f;stroke-linejoin:round;stroke-width:2px"/><path d="M37,20l-7,4v2c0,1.7,1,3,2,3H48c1,0,2-1.3,2-3V24l-7-4" style="fill:none;stroke:#70727f;stroke-linejoin:round;stroke-width:2px"/><path d="M14,56c0,3.5,2,7,5,7s5-3.5,5-7-1-5-5-5S14,52.5,14,56Z" style="fill:none;stroke:#70727f;stroke-linejoin:round;stroke-width:2px"/><path d="M16,62,9,66v2c0,1.7,1,3,2,3H27c1,0,2-1.3,2-3V66l-7-4" style="fill:none;stroke:#70727f;stroke-linejoin:round;stroke-width:2px"/><path d="M56,56c0,3.5,2,7,5,7s5-3.5,5-7-1-5-5-5S56,52.5,56,56Z" style="fill:none;stroke:#70727f;stroke-linejoin:round;stroke-width:2px"/><path d="M58,62l-7,4v2c0,1.7,1,3,2,3H69c1,0,2-1.3,2-3V66l-7-4" style="fill:none;stroke:#70727f;stroke-linejoin:round;stroke-width:2px"/><polyline points="65 41 61 45 57 41" style="fill:none;stroke:#70727f;stroke-linejoin:round;stroke-width:2px"/><polyline points="61 45 61 18 50 18" style="fill:none;stroke:#70727f;stroke-miterlimit:10;stroke-width:2px"/><polyline points="15 41 19 45 23 41" style="fill:none;stroke:#70727f;stroke-linejoin:round;stroke-width:2px"/><polyline points="19 45 19 18 30 18" style="fill:none;stroke:#70727f;stroke-miterlimit:10;stroke-width:2px"/><polyline points="48 41 40 49 36 45" style="fill:none;stroke:#70727f;stroke-linejoin:round;stroke-width:2px"/><line x1="42" y1="38" x2="44" y2="38" style="fill:none;stroke:#70727f;stroke-linejoin:round;stroke-width:2px"/><path d="M49,47a9,9,0,1,1-9-9" style="fill:none;stroke:#70727f;stroke-linejoin:round;stroke-width:2px"/></g></svg>