<svg xmlns="http://www.w3.org/2000/svg" viewBox="0 0 80 80"><title>art</title><g id="icon_care2"><path d="M59,11l10,6h4v2c0,18-14,27-14,27S45,37,45,19V17h4Z" style="fill:none;stroke:#70727f;stroke-linejoin:round;stroke-width:2px"/><path d="M59,16l8,5h2c0,11-10,20-10,20S49,32,49,21h2Z" style="fill:none;stroke:#70727f;stroke-miterlimit:10;stroke-width:2px"/><line x1="16" y1="31" x2="18" y2="31" style="fill:none;stroke:#70727f;stroke-linejoin:round;stroke-width:2px"/><line x1="20" y1="31" x2="22" y2="31" style="fill:none;stroke:#70727f;stroke-linejoin:round;stroke-width:2px"/><line x1="24" y1="31" x2="26" y2="31" style="fill:none;stroke:#70727f;stroke-linejoin:round;stroke-width:2px"/><line x1="16" y1="35" x2="30" y2="35" style="fill:none;stroke:#70727f;stroke-linejoin:round;stroke-width:2px"/><line x1="16" y1="39" x2="22" y2="39" style="fill:none;stroke:#70727f;stroke-linejoin:round;stroke-width:2px"/><polyline points="21 62 21 54 17 54 23 47 29 54 25 54 25 62" style="fill:none;stroke:#70727f;stroke-linejoin:round;stroke-width:2px"/><polyline points="49 62 49 54 45 54 51 47 57 54 53 54 53 62" style="fill:none;stroke:#70727f;stroke-linejoin:round;stroke-width:2px"/><line x1="11" y1="23" x2="30" y2="23" style="fill:none;stroke:#70727f;stroke-linejoin:round;stroke-width:2px"/><line x1="11" y1="65" x2="63" y2="65" style="fill:none;stroke:#70727f;stroke-linejoin:round;stroke-width:2px"/><path d="M33,19V35h8V19H12a1,1,0,0,0-1,1V68a1,1,0,0,0,1,1H62a1,1,0,0,0,1-1V47" style="fill:none;stroke:#70727f;stroke-miterlimit:10;stroke-width:2px"/></g></svg>