<svg xmlns="http://www.w3.org/2000/svg" viewBox="0 0 80 80"><title>art</title><g id="icon_care1"><g id="righthand"><path d="M58,52.5l7-7v-1a3,3,0,0,0-3-3H61l-10,10a7.8,7.8,0,0,0-2,5v8H60v-2a6.2,6.2,0,0,1,2-4l7-7a6.2,6.2,0,0,0,2-4v-16a3,3,0,1,0-6,0v8" style="fill:none;stroke:#70727f;stroke-miterlimit:10;stroke-width:2px"/><path d="M47,71.5v-6a1,1,0,0,1,1-1H61a1,1,0,0,1,1,1v6" style="fill:none;stroke:#70727f;stroke-miterlimit:10;stroke-width:2px"/></g><g id="leftahnd"><path d="M22,52.5l-7-7v-1a3,3,0,0,1,3-3h1l10,10a7.8,7.8,0,0,1,2,5v8H20v-2a6.2,6.2,0,0,0-2-4l-7-7a6.2,6.2,0,0,1-2-4v-16a3,3,0,0,1,6,0v8" style="fill:none;stroke:#70727f;stroke-miterlimit:10;stroke-width:2px"/><path d="M18,71.5v-6a1,1,0,0,1,1-1H32a1,1,0,0,1,1,1v6" style="fill:none;stroke:#70727f;stroke-miterlimit:10;stroke-width:2px"/></g><g id="box"><polygon points="52 36.5 40 43.5 28 36.5 28 23.5 40 17.5 52 23.5 52 36.5" style="fill:none;stroke:#70727f;stroke-miterlimit:10;stroke-width:2px"/><polyline points="52 23.5 40 30.5 28 23.5" style="fill:none;stroke:#70727f;stroke-miterlimit:10;stroke-width:2px"/><line x1="40" y1="30.5" x2="40" y2="43.5" style="fill:none;stroke:#70727f;stroke-miterlimit:10;stroke-width:2px"/></g><path d="M19,29.5a21,21,0,0,1,42,0" style="fill:none;stroke:#70727f;stroke-linejoin:round;stroke-width:2px"/><line x1="19" y1="31.5" x2="19" y2="33.5" style="fill:none;stroke:#70727f;stroke-linejoin:round;stroke-width:2px"/><line x1="19" y1="35.5" x2="19" y2="37.5" style="fill:none;stroke:#70727f;stroke-linejoin:round;stroke-width:2px"/><line x1="61" y1="31.5" x2="61" y2="33.5" style="fill:none;stroke:#70727f;stroke-linejoin:round;stroke-width:2px"/><line x1="61" y1="35.5" x2="61" y2="37.5" style="fill:none;stroke:#70727f;stroke-linejoin:round;stroke-width:2px"/></g></svg>